<?xml version="1.0" encoding="UTF-8"?>
<svg width="24" height="24" transform="scale(1,-1)" viewBox="0 -64 1208 960" transformversion="1.1" xmlns="http://www.w3.org/2000/svg" xmlns:xlink="http://www.w3.org/1999/xlink">
    <path d="M991.607 125.115v115h115.25v-115h-115.25zM808.581 125.115v115h115.206v-115h-115.206zM740.671 36.695h-115.25v162.861c0 31.833 25.79 57.522 57.692 57.522 31.769 0 57.558-25.689 57.558-57.522v-162.861zM312.063 608.755v115h115.25v-115h-115.25zM312.063 366.957v115h115.25v-115h-115.25zM312.063 125.16v115h115.25v-115h-115.25zM129.037 608.755v115h115.25v-115h-115.25zM129.037 366.913v115h115.25v-115h-115.25zM244.288 36.695h-115.295v162.861c0 31.833 25.79 57.522 57.647 57.522 31.813 0 57.647-25.689 57.647-57.522v-162.861zM1185.029 335.925l-324.2 118.205c-6.559 2.449-13.921 2.449-20.569 0l-283.909-103.513v461.245c0 11.487-6.693 22.038-17.044 27.025l-248.214 118.25c-7.987 3.829-17.758 3.829-25.79 0l-248.259-118.25c-10.352-4.986-17.044-15.538-17.044-27.025v-805.487c0-16.473 13.43-29.874 29.984-29.874h1144.738c16.509 0 29.984 13.401 29.984 29.874v301.501c0 12.511-7.942 23.819-19.677 28.049z" />
</svg>

