<?xml version="1.0" encoding="UTF-8"?>
<svg height="24" transform="scale(1,-1)" viewBox="0 -64 1181 960" transformversion="1.1" xmlns="http://www.w3.org/2000/svg" xmlns:xlink="http://www.w3.org/1999/xlink">
    <path d="M158.37 388.672c-42.463 0-76.975-33.906-76.975-75.511s34.511-75.435 76.975-75.435c42.27 0 76.743 33.83 76.743 75.435s-34.473 75.511-76.743 75.511zM468.662-64.011c-139.898 0-236.29 75.131-286.899 223.422-7.682-1.138-15.441-1.669-23.394-1.669-87.359 0-158.389 69.67-158.389 155.42s71.030 155.496 158.389 155.496c87.166 0 158.157-69.746 158.157-155.496 0-49.228-23.394-93.146-59.835-121.628 50.995-156.9 144.723-175.559 211.97-175.559 70.374 0 122.025 16.915 153.563 50.441 21.618 22.756 30.419 50.1 33.894 70.466-151.286 44.98-316.276 312.775-316.276 534.225 0 119.277 40.031 163.726 142.484 215.988 0.811 14.222 9.419 27.269 23.046 33.678l74.929 35.233c11.002 5.196 23.818 5.234 34.859 0.152 11.079-5.12 19.224-14.753 22.235-26.396l19.263-74.904c3.050-11.605 0.502-23.969-6.64-33.602-7.296-9.595-18.491-15.55-30.728-16.194l-82.881-4.172c-10.268-0.341-20.691 2.958-28.373 9.33-77.438-40.581-86.741-64.664-86.741-139.112 0-216.671 181.049-460.762 277.518-460.762 96.508 0 277.441 244.091 277.441 460.762 0 74.449-9.265 98.532-86.741 139.15-7.682-6.334-18.221-9.785-28.258-9.292l-82.958 4.21c-12.199 0.645-23.471 6.599-30.69 16.194-7.257 9.671-9.612 21.997-6.717 33.564l19.379 74.942c2.972 11.605 11.156 21.276 22.197 26.396 11.041 5.006 23.818 4.968 34.82-0.152l75.006-35.233c13.666-6.447 22.274-19.57 23.123-33.83 102.376-52.224 142.253-96.749 142.253-215.95 0-223.118-167.422-493.265-319.48-535.173-3.938-32.882-16.638-81.389-55.241-122.918-47.559-51.124-119.67-77.028-214.286-77.028z" />
</svg>

