<svg class="logo-image" viewBox="0 0 121 28" xmlns="http://www.w3.org/2000/svg">
                <title>About Kaiser Permanente Home</title>
                <style>.st0{fill:#006ba6}.as2{fill:#757575}</style>
                <g transform="translate(-686 -500)">
                    <g transform="translate(686 500)">
                        <path class="st0" d="M17.4 8c-.3-.3-.7-.5-1.1-.6l-.6 12.5 3.1-8.6c.3-1.4-.4-2.4-1.4-3.3"></path>
                        <path class="st0" d="M12.4 7.3l1.8 12.5L16 7.3c-1.1-.4-2.5-.5-3.6 0"></path>
                        <path class="st0" d="M10.9 8c-.9.8-1.7 1.9-1.4 3.2l3.1 8.6-.7-12.4c-.3.1-.7.4-1 .6"></path>
                        <path class="st0" d="M4.7 9.2c2 3.6 4.1 7.5 6.2 11-.7-3.1-1.5-8.1-2.5-9.5C7.2 9 4.7 9.2 4.7 9.2"></path>
                        <path class="st0" d="M1.1 11l8.4 9.8L4.3 9.3c-1.4 0-2.5.7-3.2 1.7"></path>
                        <path class="st0" d="M18.6 13.7l-1.4 6.7c1.8-3.2 3.6-6.3 5.3-9.4-1.7.2-3.4.8-3.9 2.7"></path>
                        <path class="st0" d="M23 11l-4.4 10 7.7-8.6c-.9-.9-2-1.3-3.3-1.4"></path>
                        <path class="st0" d="M0 15.5c2.7 2.1 5.4 4.3 8.2 6.4L.8 11.4C.1 12.6-.1 14 0 15.5"></path>
                        <path class="st0" d="M27.3 13.7l-.6-.9-6.7 9.3c2.6-2 5.2-4.1 7.8-6.1-.1-.9-.2-1.7-.5-2.3"></path>
                        <path class="st0" d="M0 19.8l7.1 3.3L0 16v3.8z"></path>
                        <path class="st0" d="M27.7 20v-3.4L21 23.3c2.3-1.1 4.4-2.1 6.7-3.3"></path>
                        <path class="st0" d="M0 23.1c2.1.5 4.5 1.1 6.4 1.5L0 20.3v2.8z"></path>
                        <path class="st0" d="m27.7 23.3v-2.6c-2 1.3-4.1 2.7-6 4l6-1.4z"></path>
                        <path class="st0" d="M0 26.4h6.3L0 23.6z"></path>
                        <path class="st0" d="M27.7 26.4v-2.5c-2.1.9-3.8 1.6-5.8 2.5h5.8z"></path>
                        <path class="st0" d="M25.5 7.7c.1-3.8-5.5-3.8-5.4 0 0 3.5 5.6 3.7 5.4 0"></path>
                        <path class="st0" d="M7.6 5.8c.2-3.8-5.7-3.7-5.4 0C2 9.6 8 9.6 7.6 5.8"></path>
                        <path class="st0" d="M14.2 6.5c2.2.1 3-1.6 3.1-3.1C17.4 1 15.9.1 14.2.1c-1.7 0-3.1 1.1-3 3.3 0 1.3.5 3 3 3.1"></path>
                        <path class="as2" d="M63.4 27h-2.3l6.4-14.9h1.9L75.8 27h-2.4L72 23.3h-7.1L63.4 27zm2.2-5.5h5.6l-2.8-7-2.8 7zM79.6 25.4V27h-1.9V11.1h2v7.4h.1c.3-.5.8-.9 1.4-1.2.6-.3 1.3-.5 2.1-.5.7 0 1.4.1 2 .4.6.3 1.1.6 1.6 1.1s.8 1 1 1.7c.2.6.4 1.3.4 2s-.1 1.4-.4 2.1c-.2.6-.6 1.2-1 1.7s-1 .9-1.6 1.1c-.6.3-1.3.4-2.1.4-.7 0-1.4-.2-2-.5-.7-.3-1.2-.8-1.6-1.4zm6.6-3.4c0-.5-.1-.9-.2-1.3s-.3-.8-.6-1.2c-.3-.3-.6-.6-1-.8-.4-.2-.9-.3-1.4-.3-.5 0-1 .1-1.4.3-.4.2-.8.5-1.1.8-.3.3-.5.7-.7 1.2-.2.4-.2.9-.2 1.4s.1.9.2 1.4c.2.4.4.8.7 1.1s.6.6 1.1.8c.4.2.9.3 1.4.3.5 0 1-.1 1.4-.3.4-.2.8-.5 1-.8s.5-.7.6-1.2c.1-.5.2-.9.2-1.4zM101.1 22c0 .8-.1 1.5-.4 2.1-.3.6-.7 1.2-1.1 1.7-.5.5-1.1.8-1.7 1.1s-1.4.4-2.1.4-1.5-.1-2.1-.4-1.2-.6-1.7-1.1c-.5-.5-.8-1-1.1-1.7-.3-.6-.4-1.4-.4-2.1 0-.8.1-1.5.4-2.1s.6-1.2 1.1-1.6c.5-.5 1-.8 1.7-1.1.7-.3 1.4-.4 2.1-.4s1.5.1 2.1.4c.7.3 1.2.6 1.7 1.1.5.5.9 1 1.1 1.6s.4 1.3.4 2.1zM99 22c0-.5-.1-.9-.2-1.4-.1-.4-.4-.8-.6-1.1-.3-.3-.6-.6-1-.8-.4-.2-.9-.3-1.4-.3-.5 0-1 .1-1.4.3-.4.2-.8.5-1 .8-.3.3-.5.7-.6 1.1-.1.4-.2.9-.2 1.4s.1.9.2 1.4c.1.4.4.8.6 1.2.3.3.6.6 1 .8.4.2.9.3 1.4.3.5 0 1-.1 1.4-.3.4-.2.8-.5 1-.8.3-.3.5-.7.6-1.2.1-.5.2-.9.2-1.4zM110.8 27c0-.3 0-.5-.1-.9v-.8c-.3.5-.7 1-1.3 1.4-.6.4-1.3.6-2 .6-.6 0-1.2-.1-1.7-.3-.5-.2-.9-.5-1.2-.9s-.5-.8-.7-1.3-.2-1-.2-1.6V17h2v5.5c0 .4 0 .8.1 1.2.1.4.2.7.3 1 .2.3.4.5.7.7s.7.3 1.1.3c.8 0 1.4-.3 1.9-.9s.7-1.4.7-2.4V17h2v8.8c0 .4 0 .8.1 1.1h-1.7zM120.9 18.7h-2.6v5.2c0 .6.1 1 .3 1.3.2.3.6.4 1.1.4.2 0 .4 0 .6-.1.2 0 .4-.1.6-.2l.1 1.6c-.2.1-.5.2-.8.2-.3 0-.6.1-.9.1-.9 0-1.7-.3-2.2-.8-.5-.5-.7-1.3-.7-2.3v-5.4h-1.9V17h1.9v-2.9h2V17h2.6v1.7z"></path>
                        <path d="m44.5 11v16" fill="none" stroke="#757575"></path>
                    </g>
                </g>
            </svg>