<svg class="logo-image" enable-background="new 0 0 333 29" viewBox="0 0 333 29" xmlns="http://www.w3.org/2000/svg">
                                    <style>.st0{fill:#006ba6}.st2{fill:#fff}</style>
                                    <g transform="translate(-474 -374)">
                                        <g transform="translate(474 374)">
                                            <path class="st0" d="M17.9 8.8c-.3-.3-.7-.5-1.1-.6l-.6 12.7 3.1-8.8c.3-1.4-.4-2.5-1.4-3.3"></path>
                                            <path class="st0" d="M12.7 8l1.8 12.6L16.4 8c-1.1-.4-2.5-.4-3.7 0"></path>
                                            <path class="st0" d="M11.2 8.8c-1 .8-1.7 1.9-1.4 3.3l3.1 8.8-.6-12.8c-.4.1-.8.4-1.1.7"></path>
                                            <path class="st0" d="M4.8 10c2.1 3.7 4.2 7.6 6.3 11.2-.7-3.1-1.5-8.2-2.6-9.7C7.4 9.7 4.8 10 4.8 10"></path>
                                            <path class="st0" d="M1.1 11.8l8.6 10L4.4 10c-1.4.1-2.6.8-3.3 1.8"></path>
                                            <path class="st0" d="M19.1 14.5l-1.4 6.8c1.8-3.2 3.6-6.3 5.4-9.5-1.7.1-3.4.8-4 2.7"></path>
                                            <path class="st0" d="M23.6 11.8L19.1 22l8-8.7c-1-1-2.2-1.5-3.5-1.5"></path>
                                            <path class="st0" d="M0 16.3c2.8 2.2 5.6 4.4 8.4 6.5L.8 12.2c-.7 1.2-.9 2.6-.8 4.1"></path>
                                            <path class="st0" d="M28 14.5c-.2-.3-.4-.7-.7-.9L20.5 23c2.7-2 5.4-4.1 8-6.2 0-.8-.1-1.6-.5-2.3"></path>
                                            <path class="st0" d="m0 20.7l7.3 3.4c-2.4-2.4-4.9-4.8-7.3-7.2v3.8z"></path>
                                            <path class="st0" d="m28.5 20.9v-3.5l-6.9 6.7c2.3-1 4.5-2 6.9-3.2"></path>
                                            <path class="st0" d="M0 24.1c2.2.5 4.6 1.1 6.6 1.5L0 21.2v2.9z"></path>
                                            <path class="st0" d="m28.5 24.3v-2.7c-2.1 1.3-4.2 2.7-6.1 4.1l6.1-1.4z"></path>
                                            <path class="st0" d="M0 27.4h6.4L0 24.6z"></path>
                                            <path class="st0" d="M28.5 27.4v-2.5c-2.1.9-4 1.7-6 2.5h6z"></path>
                                            <path class="st0" d="M26.3 8.5c.1-3.9-5.6-3.9-5.5 0-.1 3.5 5.6 3.7 5.5 0"></path>
                                            <path class="st0" d="m26.3 8.4v0z"></path>
                                            <path class="st0" d="M7.9 6.5C8 2.6 2 2.7 2.3 6.5c-.2 3.8 5.9 3.9 5.6 0"></path>
                                            <g transform="translate(10.602 .3)">
                                                <defs>
                                                    <filter id="m" x=".8" y=".4" width="6.3" height="6.5" filterUnits="userSpaceOnUse">
                                                        <feColorMatrix values="1 0 0 0 0 0 1 0 0 0 0 0 1 0 0 0 0 0 1 0"></feColorMatrix>
                                                    </filter>
                                                </defs>
                                                <mask x=".8" y=".4" width="6.3" height="6.5" maskUnits="userSpaceOnUse">
                                                    <g filter="url(#m)">
                                                        <path class="st2" d="M.8.4h6.3v6.5H.8z"></path>
                                                    </g>
                                                </mask>
                                                <path d="M4 6.9c2.2.1 3.1-1.6 3.1-3.1C7.2 1.4 5.7.4 4 .4 2.2.4.8 1.5.9 3.8c0 1.3.5 3 3.1 3.1" fill="#006ba6"></path>
                                            </g>
                                            <defs>
                                                <filter id="i" x="61.9" y="12" width="2.6" height="15.2" filterUnits="userSpaceOnUse">
                                                    <feColorMatrix values="1 0 0 0 0 0 1 0 0 0 0 0 1 0 0 0 0 0 1 0"></feColorMatrix>
                                                </filter>
                                            </defs>
                                            <mask x="61.9" y="12" width="2.6" height="15.2" maskUnits="userSpaceOnUse">
                                                <g filter="url(#i)">
                                                    <path class="st2" d="M0 27.6h239.9V.7H0z"></path>
                                                </g>
                                            </mask>
                                            <path d="M61.9 27.2h2.6V12h-2.6z" fill="#006ba6"></path>
                                            <defs>
                                                <filter id="h" x="38.6" y="12" width="22.5" height="15.2" filterUnits="userSpaceOnUse">
                                                    <feColorMatrix values="1 0 0 0 0 0 1 0 0 0 0 0 1 0 0 0 0 0 1 0"></feColorMatrix>
                                                </filter>
                                            </defs>
                                            <mask x="38.6" y="12" width="22.5" height="15.2" maskUnits="userSpaceOnUse">
                                                <g filter="url(#h)">
                                                    <path class="st2" d="M0 27.6h239.9V.7H0z"></path>
                                                </g>
                                            </mask>
                                            <path d="M52 20.7l2-6.3h.1l2.1 6.3H52zm.6-8.7l-4.4 12.9-4.3-5.5 5.8-7.4h-3l-5.4 7.2V12h-2.6v15.2h2.6v-7.5l5.5 7.5H50l1.4-4.4H57l1.5 4.4h2.7L55.9 12h-3.3z" fill="#006ba6"></path>
                                            <defs>
                                                <filter id="g" x="142.3" y="12" width="14.4" height="15.2" filterUnits="userSpaceOnUse">
                                                    <feColorMatrix values="1 0 0 0 0 0 1 0 0 0 0 0 1 0 0 0 0 0 1 0"></feColorMatrix>
                                                </filter>
                                            </defs>
                                            <mask x="142.3" y="12" width="14.4" height="15.2" maskUnits="userSpaceOnUse">
                                                <g filter="url(#g)">
                                                    <path class="st2" d="M0 27.6h239.9V.7H0z"></path>
                                                </g>
                                            </mask>
                                            <path d="M149.5 23l-2.6-11h-4.6v15.2h2.6V14.3l3.3 12.9h2.6l3.3-12.9v12.9h2.6V12h-4.5l-2.7 11z" fill="#006ba6"></path>
                                            <defs>
                                                <filter id="f" x="158" y="12" width="13.7" height="15.2" filterUnits="userSpaceOnUse">
                                                    <feColorMatrix values="1 0 0 0 0 0 1 0 0 0 0 0 1 0 0 0 0 0 1 0"></feColorMatrix>
                                                </filter>
                                            </defs>
                                            <mask x="158" y="12" width="13.7" height="15.2" maskUnits="userSpaceOnUse">
                                                <g filter="url(#f)">
                                                    <path class="st2" d="M0 27.6h239.9V.7H0z"></path>
                                                </g>
                                            </mask>
                                            <path d="M162.6 20.7l2-6.3h.1l2.1 6.3h-4.2zm.6-8.7L158 27.2h2.6l1.4-4.4h5.6l1.5 4.4h2.7L166.5 12h-3.3z" fill="#006ba6"></path>
                                            <defs>
                                                <filter id="e" x="172.8" y="12" width="12" height="15.2" filterUnits="userSpaceOnUse">
                                                    <feColorMatrix values="1 0 0 0 0 0 1 0 0 0 0 0 1 0 0 0 0 0 1 0"></feColorMatrix>
                                                </filter>
                                            </defs>
                                            <mask x="172.8" y="12" width="12" height="15.2" maskUnits="userSpaceOnUse">
                                                <g filter="url(#e)">
                                                    <path class="st2" d="M0 27.6h239.9V.7H0z"></path>
                                                </g>
                                            </mask>
                                            <path d="M182.3 23.7l-6-11.7h-3.5l.1 15.2h2.4V15.8l6 11.4h3.5V12h-2.5z" fill="#006ba6"></path>
                                            <defs>
                                                <filter id="d" x="223.1" y="12" width="8.8" height="15.2" filterUnits="userSpaceOnUse">
                                                    <feColorMatrix values="1 0 0 0 0 0 1 0 0 0 0 0 1 0 0 0 0 0 1 0"></feColorMatrix>
                                                </filter>
                                            </defs>
                                            <mask x="223.1" y="12" width="8.8" height="15.2" maskUnits="userSpaceOnUse">
                                                <g filter="url(#d)">
                                                    <path class="st2" d="M0 27.6h239.9V.7H0z"></path>
                                                </g>
                                            </mask>
                                            <path d="M231.9 25h-6.2v-4.3h4.6v-2.2h-4.6v-4.3h5.7V12h-8.3v15.2h8.8V25z" fill="#006ba6"></path>
                                            <defs>
                                                <filter id="c" x="187.6" y="12" width="34.3" height="15.2" filterUnits="userSpaceOnUse">
                                                    <feColorMatrix values="1 0 0 0 0 0 1 0 0 0 0 0 1 0 0 0 0 0 1 0"></feColorMatrix>
                                                </filter>
                                            </defs>
                                            <mask x="187.6" y="12" width="34.3" height="15.2" maskUnits="userSpaceOnUse">
                                                <g filter="url(#c)">
                                                    <path class="st2" d="M0 27.6h239.9V.7H0z"></path>
                                                </g>
                                            </mask>
                                            <path d="M208.1 12h-.5v11.9l-6-11.8h-3.5v13h-7.9v-4.3h4.6v-2.2h-4.6v-4.3h5.7V12h-8.3v15.2h13V15.6l5.9 11.6h3.6V14.3h4.6v12.9h2.6V14.3h4.5V12h-13.7z" fill="#006ba6"></path>
                                            <defs>
                                                <filter id="b" x="119.1" y="12" width="21.4" height="15.2" filterUnits="userSpaceOnUse">
                                                    <feColorMatrix values="1 0 0 0 0 0 1 0 0 0 0 0 1 0 0 0 0 0 1 0"></feColorMatrix>
                                                </filter>
                                            </defs>
                                            <mask x="119.1" y="12" width="21.4" height="15.2" maskUnits="userSpaceOnUse">
                                                <g filter="url(#b)">
                                                    <path class="st2" d="M0 27.6h239.9V.7H0z"></path>
                                                </g>
                                            </mask>
                                            <path d="M132.3 18.5v-4.3h2.2c2 0 2.8.8 2.8 2.1 0 1.5-.8 2.2-2.8 2.2h-2.2zm6.2 1.1c.8-.7 1.4-1.8 1.4-3.2 0-1.4-.6-2.5-1.4-3.2-.9-.8-2.2-1.1-4.4-1.1h-4.4V25h-8v-4.3h4.6v-2.2h-4.6v-4.3h5.7V12h-8.3v15.2h13.2v-6.5h1.3c1.2 1.9 3.8 6.5 3.8 6.5h3.1l-4.1-6.7c.9-.2 1.5-.5 2.1-.9z" fill="#006ba6"></path>
                                            <defs>
                                                <filter id="a" x="77.8" y="12" width="21.4" height="15.2" filterUnits="userSpaceOnUse">
                                                    <feColorMatrix values="1 0 0 0 0 0 1 0 0 0 0 0 1 0 0 0 0 0 1 0"></feColorMatrix>
                                                </filter>
                                            </defs>
                                            <mask x="77.8" y="12" width="21.4" height="15.2" maskUnits="userSpaceOnUse">
                                                <g filter="url(#a)">
                                                    <path class="st2" d="M0 27.6h239.9V.7H0z"></path>
                                                </g>
                                            </mask>
                                            <path d="M91 18.5v-4.3h2.2c2 0 2.8.8 2.8 2.1 0 1.5-.8 2.2-2.8 2.2H91zm6.2 1.1c.8-.7 1.4-1.8 1.4-3.2 0-1.4-.6-2.5-1.4-3.2-.9-.9-2.2-1.2-4.4-1.2h-4.4v13h-8v-4.3H85v-2.2h-4.6v-4.3h5.7V12h-8.3v15.2H91v-6.5h1.3c1.2 1.9 3.8 6.5 3.8 6.5h3.1l-4.1-6.7c.9-.2 1.5-.5 2.1-.9z" fill="#006ba6"></path>
                                            <defs>
                                                <filter id="l" x="107.3" y="12" width="10.2" height="15.2" filterUnits="userSpaceOnUse">
                                                    <feColorMatrix values="1 0 0 0 0 0 1 0 0 0 0 0 1 0 0 0 0 0 1 0"></feColorMatrix>
                                                </filter>
                                            </defs>
                                            <mask x="107.3" y="12" width="10.2" height="15.2" maskUnits="userSpaceOnUse">
                                                <g filter="url(#l)">
                                                    <path class="st2" d="M0 27.6h239.9V.7H0z"></path>
                                                </g>
                                            </mask>
                                            <path d="M112.1 18.7h-2.2v-4.5h2.2c2 0 2.8.9 2.8 2.2 0 1.4-.9 2.3-2.8 2.3m4-5.5c-.9-.8-2.2-1.1-4.4-1.1h-4.4v15.2h2.6V21h1.8c2.2 0 3.5-.4 4.4-1.2.8-.7 1.4-1.9 1.4-3.3s-.6-2.6-1.4-3.3" fill="#006ba6"></path>
                                            <defs>
                                                <filter id="k" x="66.5" y="11.8" width="9.7" height="15.6" filterUnits="userSpaceOnUse">
                                                    <feColorMatrix values="1 0 0 0 0 0 1 0 0 0 0 0 1 0 0 0 0 0 1 0"></feColorMatrix>
                                                </filter>
                                            </defs>
                                            <mask x="66.5" y="11.8" width="9.7" height="15.6" maskUnits="userSpaceOnUse">
                                                <g filter="url(#k)">
                                                    <path class="st2" d="M0 27.6h239.9V.7H0z"></path>
                                                </g>
                                            </mask>
                                            <path d="M72.2 18.3c-2.1-.8-3-1.3-3-2.5 0-.9.9-2 2.7-2 1.3 0 2.6.5 3.3.8v-2.2c-.7-.3-1.9-.7-3.2-.7-3.2 0-5.5 1.8-5.5 4.3 0 2.2 1.7 3.5 4.2 4.4 2 .7 2.8 1.4 2.8 2.6 0 1.3-1.1 2.2-2.9 2.2-1.4 0-3.2-.5-4.1-1.1v2.4c.9.5 2.4.9 4 .9 3.9 0 5.8-2.1 5.8-4.5-.1-2.3-1.5-3.6-4.1-4.6" fill="#006ba6"></path>
                                            <defs>
                                                <filter id="j" x="233.7" y="21.5" width="6.2" height="6.2" filterUnits="userSpaceOnUse">
                                                    <feColorMatrix values="1 0 0 0 0 0 1 0 0 0 0 0 1 0 0 0 0 0 1 0"></feColorMatrix>
                                                </filter>
                                            </defs>
                                            <mask x="233.7" y="21.5" width="6.2" height="6.2" maskUnits="userSpaceOnUse">
                                                <g filter="url(#j)">
                                                    <path class="st2" d="M0 27.6h239.9V.7H0z"></path>
                                                </g>
                                            </mask>
                                            <path d="M236.2 24.3v-1.1h.7c.4 0 .8.1.8.5 0 .5-.4.6-.9.6h-.6zm0 .5h.6l.9 1.5h.6l-1-1.6c.5-.1.9-.3.9-1s-.4-1-1.2-1h-1.3v3.5h.5v-1.4zm.6 2.8c1.7 0 3.1-1.3 3.1-3.1s-1.4-3.1-3.1-3.1c-1.7 0-3.1 1.3-3.1 3.1s1.4 3.1 3.1 3.1zm-2.5-3.1c0-1.5 1.1-2.6 2.5-2.6s2.5 1.1 2.5 2.6-1.1 2.6-2.5 2.6-2.5-1.1-2.5-2.6z" fill="#006ba6"></path>
                                            <path d="M275.4 28h-2.3l6.4-14.9h1.9l6.4 14.9h-2.4l-1.5-3.7h-7.1l-1.4 3.7zm2.2-5.5h5.6l-2.8-7-2.8 7zm14 3.9V28h-1.9V12.1h2v7.4h.1c.3-.5.8-.9 1.4-1.2.6-.3 1.3-.5 2.1-.5.7 0 1.4.1 2 .4.6.3 1.1.6 1.6 1.1s.8 1 1 1.7c.2.6.4 1.3.4 2s-.1 1.4-.4 2.1c-.2.6-.6 1.2-1 1.7s-1 .9-1.6 1.1c-.6.3-1.3.4-2.1.4-.7 0-1.4-.2-2-.5-.7-.3-1.2-.8-1.6-1.4zm6.6-3.4c0-.5-.1-.9-.2-1.3s-.3-.8-.6-1.2c-.3-.3-.6-.6-1-.8-.4-.2-.9-.3-1.4-.3-.5 0-1 .1-1.4.3-.4.2-.8.5-1.1.8-.3.3-.5.7-.7 1.2-.2.4-.2.9-.2 1.4s.1.9.2 1.4c.2.4.4.8.7 1.1s.6.6 1.1.8c.4.2.9.3 1.4.3.5 0 1-.1 1.4-.3.4-.2.8-.5 1-.8s.5-.7.6-1.2c.1-.5.2-.9.2-1.4zm14.9 0c0 .8-.1 1.5-.4 2.1-.3.6-.7 1.2-1.1 1.7-.5.5-1.1.8-1.7 1.1s-1.4.4-2.1.4-1.5-.1-2.1-.4-1.2-.6-1.7-1.1c-.5-.5-.8-1-1.1-1.7-.3-.6-.4-1.4-.4-2.1 0-.8.1-1.5.4-2.1s.6-1.2 1.1-1.6c.5-.5 1-.8 1.7-1.1.7-.3 1.4-.4 2.1-.4s1.5.1 2.1.4c.7.3 1.2.6 1.7 1.1.5.5.9 1 1.1 1.6s.4 1.3.4 2.1zm-2.1 0c0-.5-.1-.9-.2-1.4-.1-.4-.4-.8-.6-1.1-.3-.3-.6-.6-1-.8-.4-.2-.9-.3-1.4-.3-.5 0-1 .1-1.4.3-.4.2-.8.5-1 .8-.3.3-.5.7-.6 1.1-.1.4-.2.9-.2 1.4s.1.9.2 1.4c.1.4.4.8.6 1.2.3.3.6.6 1 .8.4.2.9.3 1.4.3.5 0 1-.1 1.4-.3.4-.2.8-.5 1-.8.3-.3.5-.7.6-1.2.1-.5.2-.9.2-1.4zm11.8 5c0-.3 0-.5-.1-.9v-.8c-.3.5-.7 1-1.3 1.4-.6.4-1.3.6-2 .6-.6 0-1.2-.1-1.7-.3-.5-.2-.9-.5-1.2-.9s-.5-.8-.7-1.3-.2-1-.2-1.6V18h2v5.5c0 .4 0 .8.1 1.2.1.4.2.7.3 1 .2.3.4.5.7.7s.7.3 1.1.3c.8 0 1.4-.3 1.9-.9s.7-1.4.7-2.4V18h2v8.8c0 .4 0 .8.1 1.1h-1.7zm10.1-8.3h-2.6v5.2c0 .6.1 1 .3 1.3.2.3.6.4 1.1.4.2 0 .4 0 .6-.1.2 0 .4-.1.6-.2l.1 1.6c-.2.1-.5.2-.8.2-.3 0-.6.1-.9.1-.9 0-1.7-.3-2.2-.8-.5-.5-.7-1.3-.7-2.3v-5.4h-1.9V18h1.9v-2.9h2V18h2.6v1.7z" enable-background="new" fill="#757575"></path>
                                            <path d="m256.5 12v16" fill="none" stroke="#757575"></path>
                                        </g>
                                    </g>
                                </svg>