<svg viewBox="0 0 291 34" xmlns="http://www.w3.org/2000/svg" xmlns:xlink="http://www.w3.org/1999/xlink">
    <g transform="translate(0 -1)" fill="#fff" fill-rule="evenodd">
        <path d="m21.706 11.66c-0.38566-0.31132-0.85764-0.64105-1.3333-0.78474l-0.75846 15.383 3.8125-10.634c0.35811-1.6229-0.53992-2.9621-1.7208-3.9642m-6.2967-0.92824l2.2405 15.354 2.1836-15.343c-1.2745-0.50105-2.9512-0.56737-4.4241-0.011053m-1.8552 0.91295c-1.1809 1.0021-2.0789 2.3432-1.7208 3.9661l3.8144 10.633-0.75846-15.385c-0.47565 0.14553-0.9513 0.47526-1.3351 0.78658m-7.6787 1.4599c2.5417 4.4818 5.1366 9.2805 7.6783 13.578-0.89804-3.7597-1.8144-10.004-3.1128-11.758-1.5004-2.1111-4.5655-1.82-4.5655-1.82m-4.5141 2.2496l10.422 12.121-6.4626-14.304c-1.6804 0.06079-3.1018 0.92474-3.9594 2.1829m21.801 3.2758l-1.7245 8.3097c2.2295-3.8795 4.4241-7.7037 6.5691-11.585-2.0587 0.15289-4.1651 0.95053-4.8446 3.2753m5.461-3.2758l-5.4929 12.314 9.6507-10.585c-1.1037-1.1642-2.5417-1.7039-4.1578-1.7297m-28.608 5.4823c3.392 2.6287 6.7601 5.3311 10.176 7.9413l-9.1659-13.013c-0.84662 1.4682-1.0927 3.1832-1.0101 5.0713m33.951-2.2424c-0.20752-0.41079-0.4481-0.79026-0.80438-1.1163l-8.3101 11.436c3.2983-2.4739 6.4956-5.0013 9.6782-7.5232 0.029383-0.99658-0.12855-1.9711-0.5638-2.7963m-33.927 7.5322l8.8702 4.1097c-2.9365-2.9437-5.9061-5.8045-8.8702-8.7058v4.5961zm34.496 0.3021v-4.1945l-8.3762 8.1568c2.8465-1.3042 5.4727-2.5845 8.3762-3.9624m-34.519 3.7759c2.6702 0.58947 5.5811 1.3466 7.9942 1.8661l-7.9942-5.3034v3.4374zm34.519 0.24297v-3.2237c-2.5086 1.6045-5.1146 3.2661-7.4396 4.9295l7.4396-1.7058zm-34.519 3.7794h7.805l-7.805-3.36zm34.519 0v-3.0561c-2.5637 1.1071-4.7969 2.0263-7.2192 3.0561h7.2192z"></path>
        <path d="m31.834 11.277c0.089987-4.6955-6.8005-4.7268-6.6738-0.042368-0.06244 4.3253 6.8372 4.5721 6.6738 0.042368"></path>
        <path d="m31.834 11.25c0.001836 0.011052 0 0.016579 0 0.027631v0.005527-0.033158zm-22.304-2.4087c0.22038-4.7158-7.0576-4.5242-6.7784 0.00921-0.24792 4.6789 7.221 4.7471 6.7784-0.00921"></path>
        <g transform="translate(12.855 1.3654)">
            <mask>
                <use xlink:href="#a"></use>
            </mask>
            <path d="m4.8009 8.3847c2.7015 0.075527 3.7813-1.9213 3.8529-3.7874 0.11386-2.9068-1.6914-4.1208-3.8437-4.1208-2.1542 0-3.9044 1.2932-3.7942 4.1208 0.06244 1.5676 0.72908 3.6989 3.785 3.7874" mask="url(#b)"></path>
        </g>
        <mask>
            <use xlink:href="#c"></use>
        </mask>
        <path d="m75.079 34.046h3.1734v-18.436h-3.1734zm-11.985-7.8754l2.4444-7.6374h0.075296l2.5417 7.6374h-5.0613zm0.72908-10.561l-5.3882 15.639-5.2523-6.6445 7.0007-8.9895h-3.6564l-6.4938 8.7518v-8.7574h-3.1771l0.001836 18.436h3.1753v-9.0871l6.7252 9.0908h0.71072l-0.00551 0.016579h3.1073l1.7006-5.3237h6.7399l1.7667 5.3034h3.3148l-6.3359-18.436h-3.9337zm117.41 13.342l-3.1863-13.353h-5.5498v18.436h3.1165v-15.721l4.0329 15.721h3.1826c0.040403 0 4.009-15.695 4.009-15.695v15.695h3.0926v-18.438h-5.4286l-3.2689 13.355zm15.939-2.8083l2.4425-7.6318h0.075296l2.549 7.6318h-5.0668zm0.72724-10.555l-6.3616 18.454h3.1092l1.7006-5.3237h6.7491l1.7777 5.3274h3.3167l-6.3652-18.458h-3.9264zm23.169 14.236l-7.3037-14.238-4.1835 0.01658 0.009182 18.43h2.999v-13.897l7.2045 13.897h4.3359v-18.451h-3.0614zm60.127 1.5273h-7.5424v-5.2076h5.5811v-2.6729l-5.5811-0.003684v-5.215c0.72724 0.014737 6.9015 0 6.9015 0v-2.6747c-1.8732-0.003684-10.044 0.012895-10.044 0.012895l-0.001836 18.449 10.694 0.003684-0.007346-2.6913zm-28.923-15.773l0.003673 0.003684h-0.58033v14.391l-7.3037-14.379h-4.1835v15.759h-9.6342v-5.2095h5.5811v-2.6729l-5.5811-0.001842v-5.2168c0.72541 0.014737 6.896 0 6.896 0v-2.6729c-1.8695-0.005526-10.038 0.011053-10.038 0.011053l-0.005509 18.449 15.546-0.003684h0.24609v-14.044l7.199 14.044h4.3414v-15.654h5.5719v15.662h3.1863v-15.662h5.4415l-0.016528-2.8018h-16.67zm-91.804 7.9188v-5.2003h2.6813c2.3984 0 3.3754 0.94868 3.3754 2.5642 0 1.7739-0.96048 2.6361-3.3754 2.6361h-2.6813zm7.4341 1.2563c0.99537-0.86947 1.7465-2.2179 1.7465-3.9255 0-1.7058-0.71623-3.0247-1.7098-3.8961-1.1111-0.97079-2.6739-1.3374-5.3221-1.3374h-5.335v7.7903h-0.003673v7.9671h-9.7058v-5.2076h5.5847v-2.6747l-5.5847-0.001842v-5.2168c0.72724 0.01658 6.9052 0 6.9052 0v-2.6729c-1.8769-0.005526-10.047 0.012895-10.047 0.012895v18.449l16.038-0.005527v-7.8363h1.5757c1.46 2.3026 4.5545 7.8639 4.5545 7.8639h3.7905l-4.9401-8.1237c1.0413-0.23579 1.8181-0.62632 2.4535-1.1845zm-57.53-1.2563v-5.2003h2.6794c2.3984 0 3.3773 0.94868 3.3773 2.5642 0 1.7739-0.96048 2.6361-3.3773 2.6361h-2.6794zm7.4359 1.2563c0.99354-0.86947 1.7465-2.2179 1.7465-3.9255 0-1.7058-0.72174-3.0247-1.7153-3.8961-1.1074-0.97079-2.6702-1.3374-5.3203-1.3374h-5.3313v7.7903h-0.009182v7.9671h-9.7003v-5.2076h5.5847v-2.6747l-5.5847-0.001842v-5.2168c0.72541 0.01658 6.9015 0 6.9015 0v-2.6729c-1.8714-0.005526-10.047 0.012895-10.047 0.012895v18.449l16.04-0.005527v-7.8363h1.5739c1.4582 2.3026 4.5545 7.8639 4.5545 7.8639h3.7887l-4.942-8.1237c1.0486-0.23579 1.8236-0.62632 2.4609-1.1845zm18.152-0.99732h-2.6813v-5.4582h2.6813c2.3966 0 3.3736 1.0739 3.3736 2.6895 0 1.6745-1.0927 2.7687-3.3736 2.7687m4.7895-6.7734c-1.1147-0.97079-2.6739-1.3871-5.3258-1.3871h-5.3331v18.451h3.19v-7.5895h2.1432c2.6519 0 4.1908-0.46421 5.3019-1.435 0.9917-0.86579 1.7281-2.3155 1.7281-4.0195 0-1.7076-0.70888-3.1518-1.7043-4.0195m-53.226 6.2985c-2.4921-0.92474-3.6785-1.6174-3.6785-3.0689 0-1.1089 1.1129-2.3745 3.3259-2.3745 1.6124 0 3.1808 0.55079 3.9613 0.96711v-2.6563c-0.81356-0.39605-2.3452-0.85842-3.8933-0.85842-3.9392 0-6.6499 2.2326-6.6499 5.2297 0 2.6618 2.0367 4.2737 5.1219 5.3347 2.3929 0.84553 3.4067 1.6911 3.4067 3.1242 0 1.5584-1.3186 2.6489-3.515 2.6489-1.7428 0-3.897-0.57842-5.0191-1.3392v2.8663c1.0707 0.59132 2.9659 1.0813 4.795 1.0813 4.7491 0 6.9915-2.5679 6.9915-5.4821 0-2.695-1.6345-4.2718-4.8465-5.4729m198.83 7.2408v-1.3337h0.88335c0.45545 0 0.93477 0.10132 0.93477 0.63184 0 0.65947-0.4885 0.70184-1.0376 0.70184h-0.7805zm0 0.55263h0.74745l1.1313 1.8661h0.73092l-1.2249-1.8955c0.63358-0.082895 1.1129-0.41447 1.1129-1.1845 0-0.84921-0.49768-1.225-1.5151-1.225h-1.6326v4.305h0.65011v-1.8661zm0.78418 3.4484c2.0311 0 3.7648-1.5824 3.7648-3.7432 0-2.1442-1.7336-3.7284-3.7648-3.7284-2.0458 0-3.7831 1.5842-3.7831 3.7284 0 2.1608 1.7373 3.7432 3.7831 3.7432zm-3.0284-3.7432c0-1.7684 1.3296-3.1021 3.0284-3.1021 1.6896 0 3.0155 1.3337 3.0155 3.1021 0 1.7942-1.3259 3.1168-3.0155 3.1168-1.6987 0-3.0284-1.3226-3.0284-3.1168z" mask="url(#d)"></path>
    </g>
</svg>