<svg xmlns="http://www.w3.org/2000/svg" viewBox="0 0 18.8 17.7">
	<title>Kaiser Permanente</title>
	<g>
		<path d="M11.8,5.3c-0.2-0.2-0.5-0.3-0.7-0.4l-0.4,8.4l2.1-5.8C12.9,6.6,12.5,5.8,11.8,5.3z"/>
		<path d="M8.4,4.8l1.2,8.3l1.2-8.3C10,4.5,9.2,4.5,8.4,4.8z"/>
		<path d="M7.4,5.3C6.7,5.8,6.3,6.6,6.4,7.5l2.1,5.8L8.1,4.9C7.8,5,7.6,5.1,7.4,5.3z"/>
		<path d="M3.2,6.1c1.4,2.4,2.8,5,4.2,7.4c-0.5-2-1-5.4-1.7-6.4C5.1,6.4,4.1,6,3.2,6.1z"/>
		<path d="M0.7,7.3l5.7,6.6L2.9,6.2C2,6.2,1.2,6.6,0.7,7.3z"/>
		<path d="M12.6,9.1l-0.9,4.5c1.2-2.1,2.4-4.2,3.6-6.3C14.1,7.3,13,8,12.6,9.1z"/>
		<path d="M15.6,7.3l-3,6.7l5.3-5.8C17.3,7.7,16.4,7.3,15.6,7.3z"/>
		<path d="M0,10.3c1.9,1.4,3.7,2.9,5.5,4.3l-5-7.1C0.1,8.4-0.1,9.4,0,10.3z"/>
		<path d="M18.5,9.1c-0.1-0.2-0.3-0.4-0.4-0.6l-4.5,6.2c1.8-1.3,3.5-2.7,5.3-4.1C18.8,10.1,18.7,9.6,18.5,9.1z"/>
		<path d="M0,13.2l4.8,2.2c-1.6-1.6-3.2-3.1-4.8-4.7V13.2z"/>
		<path d="M18.8,13.4v-2.3l-4.6,4.4C15.8,14.8,17.2,14.1,18.8,13.4z"/>
		<path d="M0,15.4c1.5,0.3,3,0.7,4.3,1L0,13.5V15.4z"/>
		<path d="M18.8,15.5v-1.8c-1.4,0.9-2.8,1.8-4.1,2.7L18.8,15.5z"/>
		<polygon points="0,17.6 4.3,17.6 0,15.8 "/>
		<path d="M18.8,17.6v-1.7c-1.4,0.6-2.6,1.1-3.9,1.7H18.8z"/>
		<path d="M17.3,5.1c0.1-1-0.7-1.9-1.7-1.9c-1-0.1-1.9,0.7-1.9,1.7c0,0.1,0,0.2,0,0.3C13.7,7.4,17.4,7.6,17.3,5.1z"/>
		<path d="M17.3,5.1L17.3,5.1L17.3,5.1z"/>
		<path d="M5.2,3.8c0.1-2.6-3.8-2.5-3.7,0C1.4,6.3,5.4,6.4,5.2,3.8z"/>
		<path d="M9.6,4.3c1.1,0.1,2-0.8,2.1-1.9c0-0.1,0-0.1,0-0.2C11.8,1.1,11.1,0.1,10,0C9.8,0,9.7,0,9.6,0c-1.1,0-2,0.8-2.1,1.9
	c0,0.1,0,0.2,0,0.3c-0.1,1.1,0.8,2,1.8,2.1C9.5,4.3,9.5,4.3,9.6,4.3z"/>
	</g>
</svg>
