<?xml version="1.0" encoding="UTF-8"?>
<svg height="24" transform="scale(1,-1)" viewBox="0 -40 569 984" transformversion="1.1" xmlns="http://www.w3.org/2000/svg" xmlns:xlink="http://www.w3.org/1999/xlink">
    <path d="M281.259 522.727c73.387 0 133.12 63.029 133.12 140.5 0 77.436-59.733 140.429-133.12 140.429-73.42 0-133.187-62.994-133.187-140.429 0-77.471 59.767-140.5 133.187-140.5zM281.259-46.334c-16.933 0-32.025 10.911-38.417 27.825l-218.888 562.211c-15.795 37.358-23.96 77.824-23.96 119.526 0 163.628 126.193 296.783 281.265 296.783s281.265-133.155 281.265-296.783c0-41.419-8.165-81.849-24.295-120.196l-218.788-561.788c-6.492-16.772-21.484-27.577-38.182-27.577z" />
</svg>

