<?xml version="1.0" encoding="UTF-8"?>
<svg height="24" transform="scale(1,-1)" viewBox="0 -40 1024 984" transformversion="1.1" xmlns="http://www.w3.org/2000/svg" xmlns:xlink="http://www.w3.org/1999/xlink">
    <path d="M94.925 587.279c0 74.221 28.9 144.005 81.389 196.456 52.414 52.489 122.197 81.389 196.343 81.389 74.259 0 144.119-28.975 196.57-81.389 108.43-108.316 108.43-284.634 0-392.988-52.452-52.452-122.311-81.389-196.456-81.389-74.259 0-144.043 28.937-196.456 81.389-52.489 52.565-81.389 122.349-81.389 196.532zM-0.004 587.279c0-99.556 38.836-193.195 109.227-263.585 70.277-70.353 163.954-109.189 263.547-109.189 68.494 0 133.954 18.735 191.298 53.096l295.708-295.822c36.75-36.75 96.825-36.75 133.651 0l3.072 3.072c36.674 36.75 36.674 96.863 0 133.613l-299.122 299.084c78.317 141.729 59.051 323.319-61.023 443.278-70.428 70.466-164.105 109.189-263.699 109.189-99.48 0-193.157-38.722-263.433-109.189-70.391-70.315-109.227-163.954-109.227-263.547z" />
</svg>