<?xml version="1.0" encoding="UTF-8"?>
<svg width="48px" height="48px" viewBox="0 0 48 48" version="1.1" xmlns="http://www.w3.org/2000/svg" xmlns:xlink="http://www.w3.org/1999/xlink">
    <title>CNCR_colorectal_IMG</title>
    <g id="CNCR_colorectal" stroke="none" stroke-width="1" fill="none" fill-rule="evenodd">
        <rect id="Rectangle" x="0" y="0" width="48" height="48"></rect>
        <g id="Group" transform="translate(5.714926, 5.681500)">
            <path d="M35.038156,6.82597488 C35.9031862,6.11953362 36.4665648,5.05820819 36.4665648,3.8538201 C36.4665648,1.72562419 34.7409406,0 32.6127447,0 C30.8837934,0 29.4387495,1.14561041 28.9507838,2.71264575 C28.3474807,2.32227318 27.6321674,2.09048946 26.8614034,2.09048946 C25.4551749,2.09048946 24.2385877,2.85016335 23.5654168,3.97470251 C22.896682,3.41686899 22.048287,3.06863891 21.108953,3.06863891 C19.9600156,3.06863891 18.9397236,3.58211192 18.2332824,4.37949225 C17.5268411,3.58211192 16.5065492,3.06863891 15.3576117,3.06863891 C14.4193867,3.06863891 13.5698828,3.41686899 12.902257,3.97470251 C12.2290861,2.85016335 11.0113899,2.09048946 9.60627042,2.09048946 C8.83439739,2.09048946 8.11908402,2.32227318 7.51688997,2.71264575 C7.02781524,1.14561041 5.58277133,0 3.8538201,0 C1.72562419,0 0,1.72562419 0,3.8538201 C0,5.05820819 0.563378593,6.11953362 1.42840872,6.82597488 C0.563378593,7.53352516 0,8.59485058 0,9.79812966 C0,11.0014087 0.563378593,12.0627342 1.42840872,12.7702844 C0.563378593,13.4767257 0,14.5380511 0,15.7424392 C0,16.9457183 0.563378593,18.0070437 1.42840872,18.714594 C0.563378593,19.4210353 0,20.4823607 0,21.6867488 C0,23.8149447 1.72562419,25.5394599 3.8538201,25.5394599 C5.98312502,25.5394599 7.7076402,23.8149447 7.7076402,21.6867488 C7.7076402,20.4823607 7.14426161,19.4210353 6.2803405,18.714594 C7.14426161,18.0070437 7.7076402,16.9457183 7.7076402,15.7424392 C7.7076402,14.5380511 7.14426161,13.4767257 6.2803405,12.7702844 C7.14426161,12.0627342 7.7076402,11.0014087 7.7076402,9.79812966 C7.7076402,9.61070647 7.67880586,9.42993736 7.65329856,9.24916824 C8.22776729,9.58963522 8.88984804,9.79812966 9.60627042,9.79812966 C10.5444954,9.79812966 11.3928903,9.44989959 12.0616252,8.89206606 C12.734796,10.0154962 13.9524923,10.7762791 15.3576117,10.7762791 C16.5065492,10.7762791 17.5268411,10.2628061 18.2332824,9.46431676 C18.9397236,10.2628061 19.9600156,10.7762791 21.108953,10.7762791 C22.5140725,10.7762791 23.7328777,10.0154962 24.4060486,8.89206606 C25.0736744,9.44989959 25.9220694,9.79812966 26.8614034,9.79812966 C27.5767167,9.79812966 28.2399065,9.58963522 28.8143752,9.24916824 C28.7877589,9.42993736 28.7589246,9.61070647 28.7589246,9.79812966 C28.7589246,11.0014087 29.3223032,12.0627342 30.1862243,12.7702844 C29.3223032,13.4767257 28.7589246,14.5380511 28.7589246,15.7424392 C28.7589246,16.9457183 29.3223032,18.0070437 30.1862243,18.714594 C29.6749693,19.1326919 29.2701795,19.6705632 29.0273057,20.2971555 C28.3330636,19.2879537 27.170818,18.6236549 25.8533106,18.6236549 C23.9801876,18.6236549 22.4209154,19.9611246 22.0737943,21.7333273 C21.788778,21.6490424 21.4937805,21.5891557 21.1810389,21.5891557 L20.4158199,21.5891557 C18.6691245,21.5891557 17.2396067,23.0186734 17.2396067,24.7653688 L17.2396067,29.7559272 C17.2396067,31.0645625 18.0414231,32.1946468 19.1781614,32.6792854 C19.1770524,32.7081198 19.1692893,32.7369541 19.1692893,32.7657884 L19.1692893,35.3719689 C19.1692893,36.2669424 19.9023469,37 20.7984294,37 C21.6945119,37 22.4275695,36.2669424 22.4275695,35.3719689 L22.4275695,32.7657884 C22.4275695,32.7369541 22.4198064,32.7081198 22.4186974,32.6792854 C23.5554357,32.1946468 24.3583611,31.0645625 24.3583611,29.7559272 L24.3583611,26.0307526 C24.8174924,26.2248299 25.3232023,26.3312951 25.8533106,26.3312951 C27.4902137,26.3312951 28.879807,25.3065672 29.4387495,23.8681773 C30.1341007,24.8773791 31.2941282,25.5394599 32.6127447,25.5394599 C34.7409406,25.5394599 36.4665648,23.8149447 36.4665648,21.6867488 C36.4665648,20.4823607 35.9031862,19.4210353 35.038156,18.714594 C35.9031862,18.0070437 36.4665648,16.9457183 36.4665648,15.7424392 C36.4665648,14.5380511 35.9031862,13.4767257 35.038156,12.7702844 C35.9031862,12.0627342 36.4665648,11.0014087 36.4665648,9.79812966 C36.4665648,8.59485058 35.9031862,7.53352516 35.038156,6.82597488 Z" id="Fill-1" fill="#92CCF0"></path>
            <path d="M36.4665648,9.79812966 C36.4665648,8.59485058 35.9031862,7.53352516 35.038156,6.82597488 C35.9031862,6.11953362 36.4665648,5.05820819 36.4665648,3.8538201 C36.4665648,1.72562419 34.7409406,0 32.6127447,0 C30.8837934,0 29.4387495,1.14561041 28.9507838,2.71264575 C28.3474807,2.32227318 27.6321674,2.09048946 26.8614034,2.09048946 C25.4551749,2.09048946 24.2385877,2.85016335 23.5654168,3.97470251 C22.896682,3.41686899 22.048287,3.06863891 21.108953,3.06863891 C19.9600156,3.06863891 18.9397236,3.58211192 18.2332824,4.37949225 C17.5268411,3.58211192 16.5065492,3.06863891 15.3576117,3.06863891 C14.4193867,3.06863891 13.5698828,3.41686899 12.902257,3.97470251 C12.2290861,2.85016335 11.0113899,2.09048946 9.60627042,2.09048946 C8.83439739,2.09048946 8.11908402,2.32227318 7.51688997,2.71264575 C7.02781524,1.14561041 5.58277133,0 3.8538201,0 C1.72562419,0 0,1.72562419 0,3.8538201 C0,5.05820819 0.563378593,6.11953362 1.42840872,6.82597488 C0.563378593,7.53352516 0,8.59485058 0,9.79812966 C0,11.0014087 0.563378593,12.0627342 1.42840872,12.7702844 C0.563378593,13.4767257 0,14.5380511 0,15.7424392 C0,16.9457183 0.563378593,18.0070437 1.42840872,18.714594 C0.563378593,19.4210353 0,20.4823607 0,21.6867488 C0,23.8149447 1.72562419,25.5394599 3.8538201,25.5394599 C5.98312502,25.5394599 7.7076402,23.8149447 7.7076402,21.6867488 C7.7076402,20.4823607 7.14426161,19.4210353 6.2803405,18.714594 C7.14426161,18.0070437 7.7076402,16.9457183 7.7076402,15.7424392 C7.7076402,14.5380511 7.14426161,13.4767257 6.2803405,12.7702844 C7.14426161,12.0627342 7.7076402,11.0014087 7.7076402,9.79812966 C7.7076402,9.61070647 7.67880586,9.42993736 7.65329856,9.24916824 C8.22776729,9.58963522 8.88984804,9.79812966 9.60627042,9.79812966 C10.5444954,9.79812966 11.3928903,9.44989959 12.0616252,8.89206606 C12.734796,10.0154962 13.9524923,10.7762791 15.3576117,10.7762791 C16.5065492,10.7762791 17.5268411,10.2628061 18.2332824,9.46431676 C18.9397236,10.2628061 19.9600156,10.7762791 21.108953,10.7762791 C22.5140725,10.7762791 23.7328777,10.0154962 24.4060486,8.89206606 C25.0736744,9.44989959 25.9220694,9.79812966 26.8614034,9.79812966 C27.5767167,9.79812966 28.2399065,9.58963522 28.8143752,9.24916824 C28.7877589,9.42993736 28.7589246,9.61070647 28.7589246,9.79812966 C28.7589246,11.0014087 29.3223032,12.0627342 30.1862243,12.7702844 C29.3223032,13.4767257 28.7589246,14.5380511 28.7589246,15.7424392 C28.7589246,16.9457183 29.3223032,18.0070437 30.1862243,18.714594 C29.6749693,19.1326919 29.2701795,19.6705632 29.0273057,20.2971555 C28.3330636,19.2879537 27.170818,18.6236549 25.8533106,18.6236549 C23.9801876,18.6236549 22.4209154,19.9611246 22.0737943,21.7333273 C21.788778,21.6490424 21.4937805,21.5891557 21.1810389,21.5891557 L20.4158199,21.5891557 C18.6691245,21.5891557 17.2396067,23.0186734 17.2396067,24.7653688 L17.2396067,29.7559272 C17.2396067,31.0645625 18.0414231,32.1946468 19.1781614,32.6792854 C19.1770524,32.7081198 19.1692893,32.7369541 19.1692893,32.7657884 L19.1692893,35.3719689 C19.1692893,36.2669424 19.9023469,37 20.7984294,37 C21.6945119,37 22.4275695,36.2669424 22.4275695,35.3719689 L22.4275695,32.7657884 C22.4275695,32.7369541 22.4198064,32.7081198 22.4186974,32.6792854 C23.5554357,32.1946468 24.3583611,31.0645625 24.3583611,29.7559272 L24.3583611,26.0307526 C24.8174924,26.2248299 25.3232023,26.3312951 25.8533106,26.3312951 C27.4902137,26.3312951 28.879807,25.3065672 29.4387495,23.8681773 C30.1341007,24.8773791 31.2941282,25.5394599 32.6127447,25.5394599 C34.7409406,25.5394599 36.4665648,23.8149447 36.4665648,21.6867488 C36.4665648,20.4823607 35.9031862,19.4210353 35.038156,18.714594 C35.9031862,18.0070437 36.4665648,16.9457183 36.4665648,15.7424392 C36.4665648,14.5380511 35.9031862,13.4767257 35.038156,12.7702844 C35.9031862,12.0627342 36.4665648,11.0014087 36.4665648,9.79812966 Z" id="Stroke-3" stroke="#003B71" stroke-width="1.5" stroke-linecap="round" stroke-linejoin="round"></path>
        </g>
    </g>
</svg>