<?xml version="1.0" encoding="UTF-8"?>
<svg width="48px" height="48px" viewBox="0 0 48 48" version="1.1" xmlns="http://www.w3.org/2000/svg" xmlns:xlink="http://www.w3.org/1999/xlink">
    <title>CNCR_Connected_IMG</title>
    <g id="CNCR_Connected" stroke="none" stroke-width="1" fill="none" fill-rule="evenodd">
        <rect id="Rectangle" x="0" y="0" width="48" height="48"></rect>
        <path d="M40.95,30.2 L40.95,20.52 C42.4150488,20.0961409 43.4744735,18.8230697 43.6251284,17.305398 C43.7757833,15.7877262 42.9873159,14.3312201 41.6341879,13.6276087 C40.2810598,12.9239972 38.6358868,13.1150375 37.48,14.11 L27.48,8.56 C27.48,8.47 27.48,8.38 27.48,8.29 C27.48,6.22445504 25.805545,4.55 23.74,4.55 C21.674455,4.55 20,6.22445504 20,8.29 C19.9896494,8.45316935 19.9896494,8.61683065 20,8.78 L10.05,14.14 C8.77941172,13.2765917 7.11007737,13.2779425 5.84088805,14.1434059 C4.57169874,15.0088693 3.96080698,16.5624105 4.30056644,18.0605534 C4.6403259,19.5586962 5.86162966,20.6967191 7.38,20.93 L7.38,30.13 C5.65838683,30.4724621 4.40659824,31.9661525 4.37045515,33.7211243 C4.33431205,35.476096 5.52354113,37.0200585 7.22959468,37.4331123 C8.93564824,37.8461661 10.6994003,37.017152 11.47,35.44 L20.12,40.27 C20.3796121,42.0493012 21.8717096,43.390114 23.6685402,43.4587514 C25.4653707,43.5273889 27.0554068,42.3043111 27.45,40.55 L27.57,40.55 L36.67,36.01 C37.6523324,37.2258552 39.2885729,37.7002535 40.7689215,37.1984082 C42.24927,36.6965629 43.2596975,35.3249313 43.3001279,33.7623545 C43.3405584,32.1997778 42.4024154,30.7777284 40.95,30.2 Z M37.01,30.94 L27.22,26.33 C27.4575253,25.8371891 27.5805915,25.2970653 27.58,24.75 C27.5774969,24.4290751 27.5338065,24.1097991 27.45,23.8 L36.98,19.31 C37.5895609,20.0569172 38.4633704,20.5403774 39.42,20.66 L39.42,29.82 L39.36,29.94 C38.4833998,29.9864207 37.6512574,30.3405239 37.01,30.94 Z M23.88,27.0100225 C22.6373593,27.0100225 21.63,26.0026407 21.63,24.76 C21.63,23.5173593 22.6373593,22.51 23.88,22.51 C25.1226407,22.51 26.1300225,23.5173593 26.1300225,24.76 C26.1326737,25.3575527 25.8964794,25.9314038 25.4739416,26.3539416 C25.0514038,26.7764794 24.4775527,27.0126737 23.88,27.0100225 Z M39.88,14.72 C41.1160742,14.7256893 42.116098,15.727456 42.1196442,16.9635382 C42.1231716,18.1996204 41.1288969,19.2070935 39.8928755,19.2198562 C38.6568541,19.232619 37.641988,18.2458917 37.62,17.01 C37.6064401,16.4038146 37.8392029,15.8180266 38.2651118,15.3864641 C38.6910207,14.9549015 39.2736885,14.7144346 39.88,14.72 Z M36.54,15.3 C36.2790651,15.8145784 36.1420845,16.383048 36.14,16.96 C36.143853,17.299389 36.197767,17.6363518 36.3,17.96 L26.78,22.46 C26.2376895,21.7557288 25.4605474,21.2695714 24.59,21.09 L24.59,11.95 C25.6724628,11.7064931 26.5915258,10.9961416 27.1,10.01 L36.54,15.3 Z M23.81,6.00997772 C24.7218474,6.00595627 25.5459731,6.55266345 25.8967925,7.39433308 C26.247612,8.23600271 26.055748,9.20618831 25.4109681,9.85096813 C24.7661883,10.495748 23.7960027,10.687612 22.9543331,10.3367925 C22.1126635,9.98597309 21.5659563,9.1618474 21.5699777,8.25 C21.5699777,7.65591506 21.8059993,7.0861623 22.2260808,6.66608081 C22.6461623,6.24599932 23.2159151,6.00997772 23.81,6.00997772 Z M23.09,12.01 L23.09,21.14 C22.1167271,21.3387111 21.2633548,21.9184281 20.72,22.75 L11.88,17.57 C11.88,17.47 11.88,17.37 11.88,17.27 C11.8799471,16.5404876 11.6642422,15.8272697 11.26,15.22 L20.61,10.22 C21.144725,11.1419888 22.0465187,11.7928803 23.09,12.01 Z M5.87997772,17.27 C5.87595627,16.3581526 6.42266345,15.5340269 7.26433308,15.1832075 C8.10600271,14.832388 9.07618831,15.024252 9.72096813,15.6690319 C10.365748,16.3138117 10.557612,17.2839973 10.2067925,18.1256669 C9.85597309,18.9673365 9.0318474,19.5140437 8.12,19.5100223 C6.88288216,19.5100223 5.87997772,18.5071178 5.87997772,17.27 Z M8.12,36.0100225 C6.87735931,36.0100225 5.87,35.0026407 5.87,33.76 C5.87,32.5173593 6.87735931,31.51 8.12,31.51 C9.36264069,31.51 10.3700225,32.5173593 10.3700225,33.76 C10.3726737,34.3575527 10.1364794,34.9314038 9.71394161,35.3539416 C9.29140379,35.7764794 8.71755273,36.0126737 8.12,36.0100225 Z M9.05,30.15 L8.88,30.01 L8.88,21.01 C9.97594141,20.751911 10.8997838,20.0187028 11.4,19.01 L20.16,24.07 C20.1247011,24.2816214 20.1046495,24.4955052 20.1,24.71 C20.1045436,25.1015802 20.1720736,25.4898777 20.3,25.86 L10.88,31.32 C10.3947464,30.7690544 9.75844262,30.3726685 9.05,30.18 L9.05,30.15 Z M11.66,32.58 L21.04,27.17 C21.5583969,27.7788585 22.2600952,28.203386 23.04,28.38 L23.04,36.01 C21.6943503,36.2939883 20.6121153,37.2917936 20.22,38.61 L11.88,34.01 C11.88,33.95 11.88,33.89 11.88,33.83 C11.8721818,33.4142047 11.7979104,33.002336 11.66,32.61 L11.66,32.58 Z M23.81,42.0100224 C22.8990519,42.0100224 22.0779947,41.4607078 21.7303315,40.6187121 C21.3826683,39.7767164 21.5770087,38.8081717 22.2225793,38.1654703 C22.8681499,37.5227689 23.8375506,37.3327446 24.6779894,37.6841549 C25.5184282,38.0355651 26.0640487,38.8590609 26.0600224,39.77 C26.0600224,40.3658216 25.8226344,40.9370951 25.4003876,41.3574652 C24.9781408,41.7778354 24.4058157,42.0126599 23.81,42.0100224 L23.81,42.0100224 Z M27.48,39.01 C27.2023513,37.5118014 26.0501489,36.3280318 24.56,36.01 L24.56,28.42 C25.2075395,28.29133 25.8085403,27.9908296 26.3,27.55 L36.13,32.18 C35.9250532,32.6464664 35.8194793,33.1504965 35.82,33.66 C35.8264219,34.0155562 35.8802294,34.3686684 35.98,34.71 L27.48,39.01 Z M39.56,35.9100224 C38.6490609,35.9140487 37.8255651,35.3684282 37.4741549,34.5279894 C37.1227446,33.6875506 37.3127689,32.7181499 37.9554703,32.0725793 C38.5981717,31.4270087 39.5667164,31.2326683 40.4087121,31.5803315 C41.2507078,31.9279947 41.8,32.7490519 41.8,33.66 C41.8,34.8987459 40.7987337,35.9044945 39.56,35.9100224 Z" id="Shape" fill="#003B71" fill-rule="nonzero"></path>
        <path d="M23.88,27.0100225 C22.6373593,27.0100225 21.63,26.0026407 21.63,24.76 C21.63,23.5173593 22.6373593,22.51 23.88,22.51 C25.1226407,22.51 26.1300225,23.5173593 26.1300225,24.76 C26.1326737,25.3575527 25.8964794,25.9314038 25.4739416,26.3539416 C25.0514038,26.7764794 24.4775527,27.0126737 23.88,27.0100225 Z M39.88,14.72 C41.1160742,14.7256893 42.116098,15.727456 42.1196442,16.9635382 C42.1231716,18.1996204 41.1288969,19.2070935 39.8928755,19.2198562 C38.6568541,19.232619 37.641988,18.2458917 37.62,17.01 C37.6064401,16.4038146 37.8392029,15.8180266 38.2651118,15.3864641 C38.6910207,14.9549015 39.2736885,14.7144346 39.88,14.72 L39.88,14.72 Z M23.81,6.00997772 C24.7218474,6.00595627 25.5459731,6.55266345 25.8967925,7.39433308 C26.247612,8.23600271 26.055748,9.20618831 25.4109681,9.85096813 C24.7661883,10.495748 23.7960027,10.687612 22.9543331,10.3367925 C22.1126635,9.98597309 21.5659563,9.1618474 21.5699777,8.25 C21.5699777,7.65591506 21.8059993,7.0861623 22.2260808,6.66608081 C22.6461623,6.24599932 23.2159151,6.00997772 23.81,6.00997772 Z M5.87997765,17.27 C5.87997765,16.3590519 6.4292922,15.5379947 7.27128792,15.1903315 C8.11328364,14.8426683 9.08182831,15.0370087 9.72452971,15.6825793 C10.3672311,16.3281499 10.5572554,17.2975506 10.2058451,18.1379894 C9.85443487,18.9784282 9.03093913,19.5240487 8.12,19.5200224 C7.52417839,19.5200224 6.9529049,19.2826344 6.53253477,18.8603876 C6.11216463,18.4381408 5.87734008,17.8658157 5.87997765,17.27 Z M8.12,36.0100225 C6.87735931,36.0100225 5.87,35.0026407 5.87,33.76 C5.87,32.5173593 6.87735931,31.51 8.12,31.51 C9.36264069,31.51 10.3700225,32.5173593 10.3700225,33.76 C10.3726737,34.3575527 10.1364794,34.9314038 9.71394161,35.3539416 C9.29140379,35.7764794 8.71755273,36.0126737 8.12,36.0100225 Z M23.81,42.0100224 C22.8990519,42.0100224 22.0779947,41.4607078 21.7303315,40.6187121 C21.3826683,39.7767164 21.5770087,38.8081717 22.2225793,38.1654703 C22.8681499,37.5227689 23.8375506,37.3327446 24.6779894,37.6841549 C25.5184282,38.0355651 26.0640487,38.8590609 26.0600224,39.77 C26.0600224,40.3658216 25.8226344,40.9370951 25.4003876,41.3574652 C24.9781408,41.7778354 24.4058157,42.0126599 23.81,42.0100224 L23.81,42.0100224 Z M39.56,35.9100224 C38.6490609,35.9140487 37.8255651,35.3684282 37.4741549,34.5279894 C37.1227446,33.6875506 37.3127689,32.7181499 37.9554703,32.0725793 C38.5981717,31.4270087 39.5667164,31.2326683 40.4087121,31.5803315 C41.2507078,31.9279947 41.8,32.7490519 41.8,33.66 C41.8,34.8987459 40.7987337,35.9044945 39.56,35.9100224 Z" id="Shape" fill="#92CCF0" fill-rule="nonzero"></path>
    </g>
</svg>