<?xml version="1.0" encoding="UTF-8"?>
<svg width="48px" height="48px" viewBox="0 0 48 48" version="1.1" xmlns="http://www.w3.org/2000/svg" xmlns:xlink="http://www.w3.org/1999/xlink">
    <title>CNCR_experimental</title>
    <g id="CNCR_experimental" stroke="none" stroke-width="1" fill="none" fill-rule="evenodd">
        <rect id="Rectangle" x="0" y="0" width="48" height="48"></rect>
        <path d="M37.94,21.69 C37.5935366,20.8935681 37.1751359,20.1304053 36.69,19.41 C36.2038903,18.6930995 35.6514598,18.0234867 35.04,17.41 C34.7413814,17.107653 34.4276465,16.8206189 34.1,16.55 C34.109944,16.6564349 34.109944,16.7635651 34.1,16.87 C34.096818,16.3306174 33.9482719,15.8020697 33.67,15.34 L37.26,11.76 C37.5419072,11.4628966 37.5419072,10.9971034 37.26,10.7 L36.12,9.56 L38.78,6.9 C38.9223742,6.76244678 39.0027772,6.57296792 39.0027772,6.375 C39.0027772,6.17703208 38.9223742,5.98755322 38.78,5.85 L36.15,3.22 C35.8690002,2.95584459 35.4309998,2.95584459 35.15,3.22 L32.44,5.88 L31.29,4.72 C30.9876239,4.44169355 30.5223761,4.44169355 30.22,4.72 L21.76,13.2 L20.76,12.2 C20.6239,12.0549842 20.4338789,11.972722 20.235,11.972722 C20.0361211,11.972722 19.8461,12.0549842 19.71,12.2 C19.4354444,12.4767978 19.4354444,12.9232022 19.71,13.2 L21.21,14.72 L21.8,15.31 L17.8,19.31 C17.5358446,19.5909998 17.5358446,20.0290002 17.8,20.31 L21.55,24.06 C21.8267978,24.3345556 22.2732022,24.3345556 22.55,24.06 L26.55,20.06 L27.14,20.64 L28.65,22.14 C28.7868108,22.2872949 28.9789714,22.3706854 29.18,22.37 C29.4770077,22.3619974 29.7412903,22.1794193 29.8538723,21.9044595 C29.9664543,21.6294997 29.9061078,21.3140027 29.7,21.1 L28.7,20.1 L29.49,19.3 C29.951067,19.5817806 30.479681,19.7338003 31.02,19.74 L31,19.74 C31.2905394,19.9521546 31.5616099,20.1897596 31.81,20.45 C32.2620502,20.8961202 32.6613361,21.3927111 33,21.93 C33.3249497,22.4140006 33.6060643,22.9260309 33.84,23.46 C34.0706357,24.0084098 34.2481157,24.5776854 34.37,25.16 C34.4762374,25.7672622 34.5197995,26.383833 34.5,27 C34.5015343,27.6144934 34.4412306,28.2275818 34.32,28.83 C34.084226,29.960572 33.6363229,31.0362181 33,32 C32.6841432,32.4832753 32.3188417,32.9323616 31.91,33.34 C31.4930941,33.7445242 31.0450487,34.1156663 30.57,34.45 C30.0855152,34.7654835 29.5773297,35.0429795 29.05,35.28 C28.5005725,35.5078381 27.9315622,35.6852354 27.35,35.81 C26.1485377,36.0500293 24.9114623,36.0500293 23.71,35.81 C23.1241581,35.6938346 22.5513342,35.5196425 22,35.29 C21.46525,35.0616153 20.9530215,34.7837397 20.47,34.46 C19.989766,34.1283834 19.5381841,33.7570827 19.12,33.35 C18.3085669,32.5177844 17.6546679,31.5454061 17.19,30.48 C17.107618,30.3282118 17.043825,30.1670504 17,30 L21.77,30 C22.1842136,30 22.52,29.6642136 22.52,29.25 C22.52,28.8357864 22.1842136,28.5 21.77,28.5 L9.77,28.5 C9.35578644,28.5 9.02,28.8357864 9.02,29.25 C9.02,29.6642136 9.35578644,30 9.77,30 L12.39,30 C12.3902331,30.1750468 12.4103623,30.3494999 12.45,30.52 C12.594401,31.1115951 12.7781431,31.6928881 13,32.26 C13.3466592,33.0512253 13.7615596,33.8107609 14.24,34.53 C14.7219782,35.2499852 15.2747266,35.9199833 15.89,36.53 C16.5096645,37.1346134 17.1786471,37.686524 17.89,38.18 C18.616953,38.665918 19.3868265,39.0843276 20.19,39.43 C20.4,39.52 20.61,39.57 20.82,39.65 C18.06,40.46 15.91,41.98 15.03,43.93 C14.9228577,44.1694048 14.9467317,44.4471356 15.0931593,44.6647433 C15.2395869,44.882351 15.4878708,45.009077 15.75,45 L35.25,45 C35.5064617,45.0004567 35.7448379,44.867954 35.88,44.65 C36.013245,44.43683 36.0355821,44.1725075 35.94,43.94 C35.05,41.99 32.94,40.47 30.13,39.66 C30.34,39.58 30.55,39.53 30.76,39.44 C31.5418485,39.0897683 32.2913995,38.6714921 33,38.19 C33.7157088,37.6985701 34.3851438,37.1429391 35,36.53 C35.6111548,35.9162367 36.1635608,35.2466537 36.65,34.53 C37.1359105,33.8065538 37.5543353,33.0399996 37.9,32.24 C38.2399691,31.4190981 38.5043967,30.5689134 38.69,29.7 C39.0498984,27.9011581 39.0498984,26.0488419 38.69,24.25 C38.5160131,23.3762117 38.265034,22.5195363 37.94,21.69 L37.94,21.69 Z M35.62,4.82 L37.19,6.38 L35.07,8.51 L33.5,6.93 L35.62,4.82 Z M22.12,22.56 L19.44,19.88 L22.87,16.44 L25.56,19.13 L22.12,22.56 Z M28.12,16.88 C28.119041,17.409158 28.2643951,17.9282799 28.54,18.38 L27.74,19.18 L22.82,14.27 L30.76,6.32 L31.91,7.45 L31.91,7.45 L34.53,10.08 L34.53,10.08 L35.68,11.21 L32.62,14.3 C32.1713986,14.0172982 31.6501781,13.8713565 31.12,13.88 C29.4631458,13.88 28.12,15.2231458 28.12,16.88 L28.12,16.88 Z M30.72,18.32 C30.0068012,18.1122188 29.5531103,17.413722 29.6532557,16.6776538 C29.753401,15.9415856 30.3772136,15.3896879 31.12,15.38 C31.797796,15.3625688 32.3983971,15.8140551 32.57,16.47 C32.5907189,16.6058814 32.5907189,16.7441186 32.57,16.88 C32.57,17.7084271 31.8984271,18.38 31.07,18.38 C30.9511882,18.3756156 30.8334883,18.3554385 30.72,18.32 L30.72,18.32 Z M33.87,43.5 L17.13,43.5 C18.69,41.69 21.92,40.5 25.5,40.5 C29.08,40.5 32.31,41.69 33.87,43.5 Z" id="Shape" fill="#003B71" fill-rule="nonzero"></path>
        <path d="M37.19,6.38 L35.62,4.82 L33.5,6.93 L35.07,8.51 L37.19,6.38 Z M31.91,7.47 L34.53,10.1 L34.53,10.1 L35.68,11.23 L32.62,14.3 C32.1713986,14.0172982 31.6501781,13.8713565 31.12,13.88 C29.4631458,13.88 28.12,15.2231458 28.12,16.88 C28.119041,17.409158 28.2643951,17.9282799 28.54,18.38 L27.74,19.18 L22.82,14.27 L30.76,6.32 L31.91,7.45 L31.91,7.47 Z M31.12,18.3800046 C30.9843988,18.3803543 30.8495294,18.3601238 30.72,18.32 C30.0068012,18.1122188 29.5531103,17.413722 29.6532557,16.6776538 C29.753401,15.9415856 30.3772136,15.3896879 31.12,15.38 C31.797796,15.3625688 32.3983971,15.8140551 32.57,16.47 C32.5907189,16.6058814 32.5907189,16.7441186 32.57,16.88 C32.5704497,17.6892873 31.9288377,18.3530239 31.12,18.3800046 L31.12,18.3800046 Z M25.5,40.5 C29.08,40.5 32.31,41.69 33.87,43.5 L17.13,43.5 C18.69,41.69 21.92,40.5 25.5,40.5 Z M22.87,16.44 L19.43,19.87 L22.12,22.56 L25.55,19.12 L22.87,16.44 Z M37.26,29.44 C37.4216631,28.6367791 37.5020684,27.8193257 37.5000389,27 C37.5018918,26.1906085 37.4214783,25.3831222 37.26,24.59 C36.9404889,23.0483046 36.3221898,21.5840909 35.44,20.28 C35.0214969,19.6332859 34.539074,19.0302573 34,18.48 C33.9373843,18.4059864 33.8669782,18.3389329 33.79,18.28 C33.5666138,18.7333226 33.2200446,19.1145487 32.79,19.38 L32.95,19.55 C33.4369939,20.0127667 33.8697751,20.5294203 34.24,21.09 C34.6277969,21.6545664 34.9625555,22.2537842 35.24,22.88 C35.5114965,23.5248153 35.7191554,24.1946826 35.86,24.88 C36.1399077,26.2828405 36.1399077,27.7271595 35.86,29.13 C35.7155673,29.8143898 35.508013,30.48392 35.24,31.13 C34.962379,31.7497857 34.6275979,32.3423482 34.24,32.9 C33.8650021,33.4631351 33.4326965,33.9859233 32.95,34.46 C32.479821,34.9469242 31.9565557,35.3796243 31.39,35.75 C30.8323482,36.1375979 30.2397857,36.472379 29.62,36.75 C28.97392,37.018013 28.3043898,37.2255673 27.62,37.37 C26.2181731,37.6599858 24.7718269,37.6599858 23.37,37.37 C22.6856102,37.2255673 22.01608,37.018013 21.37,36.75 C20.7502143,36.472379 20.1576518,36.1375979 19.6,35.75 C19.0188777,35.3637108 18.4822798,34.91431 18,34.41 C17.5201542,33.9333139 17.0880962,33.4108252 16.71,32.85 C16.3202745,32.2901592 15.9853941,31.694072 15.71,31.07 C15.5855152,30.7214613 15.4885513,30.3636982 15.42,30 L13.87,30 C13.8613487,30.0563365 13.8613487,30.1136635 13.87,30.17 C13.9962,30.6773553 14.1668599,31.1726038 14.38,31.65 C14.6788985,32.353719 15.0509428,33.024069 15.49,33.65 C15.9277557,34.3082096 16.4339047,34.91827 17,35.47 C17.5385304,36.022817 18.1353428,36.5156902 18.78,36.94 C19.4056073,37.382339 20.0759527,37.7577324 20.78,38.06 C21.5084359,38.3672087 22.2654476,38.6016814 23.04,38.76 C24.6408282,39.0800344 26.2891718,39.0800344 27.89,38.76 C28.6681697,38.6031579 29.4286435,38.3686506 30.16,38.06 C30.8632481,37.7561136 31.5334301,37.3808117 32.16,36.94 C32.8256018,36.5192631 33.442679,36.0262721 34,35.47 C34.5514609,34.9302218 35.0442086,34.3335614 35.47,33.69 C35.9126184,33.0663045 36.2848825,32.3955585 36.58,31.69 C36.8915113,30.9544695 37.1196018,30.1863414 37.26,29.4 L37.26,29.44 Z" id="Shape" fill="#92CCF0"></path>
    </g>
</svg>