<svg id="Layer_1" data-name="Layer 1" xmlns="http://www.w3.org/2000/svg" viewBox="0 0 48 48"><defs><style>.cls-1,.cls-2,.cls-3,.cls-5{fill:none;}.cls-2,.cls-3,.cls-5{stroke:#164677;}.cls-2,.cls-3{stroke-linecap:round;stroke-linejoin:round;}.cls-2,.cls-5{stroke-width:1.5px;}.cls-3{stroke-width:1.8px;}.cls-4{fill:#90cbee;fill-rule:evenodd;}</style></defs><g id="Cancer-Care"><g id="CNCR_Prevention_1360" data-name="CNCR Prevention 1360"><g id="Design"><g id="icons-"><g id="MDO-_-Pattern-_-Icon-Tile-_-Desktop-_-Vertical-_-_768-_-Variation-6-Copy-3" data-name="MDO-/-Pattern-/-Icon-Tile-/-Desktop-/-Vertical-/-&gt;768-/-Variation-6-Copy-3"><g id="Icon"><g id="CNCR_hpv" data-name="CNCR hpv"><rect id="Rectangle" class="cls-1" width="48" height="48"/><path id="Stroke-1" class="cls-2" d="M14.1,9.34a7.32,7.32,0,0,1-2.32-.29c-1.9-.62-3.24-2.36-5.37-2.23A2.41,2.41,0,0,0,4,8.94,3.33,3.33,0,0,0,4.1,10.2a2.89,2.89,0,0,0,.7,1.29" transform="translate(0 0)"/><path id="Stroke-3" class="cls-2" d="M43.2,11.49a2.89,2.89,0,0,0,.7-1.29A3.33,3.33,0,0,0,44,8.94a2.41,2.41,0,0,0-2.38-2.12c-2.13-.13-3.47,1.61-5.37,2.23a7.61,7.61,0,0,1-2.47.29" transform="translate(0 0)"/><path id="Stroke-5" class="cls-3" d="M36.77,17.69c1,1.29,3.22,1,5-.66s2.43-4,1.45-5.31-3.22-1-5,.66S35.79,16.41,36.77,17.69Z" transform="translate(0 0)"/><path id="Fill-7" class="cls-4" d="M36.8,17.69c1,1.29,3.21,1,5-.66s2.43-4,1.45-5.31-3.22-1-5,.66-2.43,4-1.45,5.31" transform="translate(0 0)"/><path id="Stroke-9" class="cls-2" d="M36.8,17.69c1,1.29,3.21,1,5-.66s2.43-4,1.45-5.31-3.22-1-5,.66S35.82,16.41,36.8,17.69Z" transform="translate(0 0)"/><path id="Stroke-11" class="cls-3" d="M11.23,17.69c-1,1.29-3.21,1-5-.66S3.8,13,4.78,11.72s3.22-1,5,.66S12.21,16.41,11.23,17.69Z" transform="translate(0 0)"/><path id="Fill-13" class="cls-4" d="M11.2,17.69c-1,1.29-3.21,1-5-.66s-2.44-4-1.46-5.31,3.22-1,5,.66,2.43,4,1.45,5.31" transform="translate(0 0)"/><path id="Stroke-15" class="cls-2" d="M11.2,17.69c-1,1.29-3.21,1-5-.66s-2.44-4-1.46-5.31,3.22-1,5,.66S12.18,16.41,11.2,17.69Z" transform="translate(0 0)"/><path id="Stroke-17" class="cls-5" d="M26,42.68c.78.09,1.89.22,2-1,0-1-.07-2.11,0-3.16.05-2,1.19-3.69,1.86-5.48a11.84,11.84,0,0,0,.41-6.54c-.33-1.48.5-2,1.17-3.13A17.55,17.55,0,0,0,33,19.42a23.81,23.81,0,0,0,.94-8.57c-.34-4-5.23-4.78-8.12-4.85H22.2c-2.89.07-7.77.82-8.12,4.85A24,24,0,0,0,15,19.42a17.55,17.55,0,0,0,1.66,3.91c.68,1.14,1.5,1.65,1.17,3.13A11.93,11.93,0,0,0,18.26,33c.67,1.79,1.81,3.48,1.86,5.48,0,1.05-.08,2.11,0,3.16.06,1.26,1.17,1.13,2,1Z" transform="translate(0 0)"/><path id="Fill-19" class="cls-4" d="M25.46,10.94a20.22,20.22,0,0,0,2.68-.33c.3-.06,1.35-.46,1.56,0a6.89,6.89,0,0,1-.1,2A18,18,0,0,1,29.21,15a16.06,16.06,0,0,1-1.6,4.2l-.39.64a6.51,6.51,0,0,0-1.47,3.09c-.17,1.72.24,3.51-.14,5.19a3.2,3.2,0,0,0,0,2.2.9.9,0,0,0,.84.54c.23,0,.45-.15.67-.09.44.11.34.78.24,1.23-.42,1.92-1.2,3.66-1.48,5.63a25.2,25.2,0,0,0-.06,5H22.45a25.2,25.2,0,0,0-.06-5c-.29-2-1.06-3.71-1.49-5.63-.09-.45-.19-1.12.25-1.23.22-.06.44.07.66.09a.91.91,0,0,0,.85-.54,3.2,3.2,0,0,0,0-2.2c-.38-1.68,0-3.47-.14-5.19A6.51,6.51,0,0,0,21,19.79c-.13-.22-.27-.42-.39-.64a16.06,16.06,0,0,1-1.6-4.2,18,18,0,0,1-.39-2.35,6.9,6.9,0,0,1-.11-2c.22-.49,1.27-.09,1.57,0a21.3,21.3,0,0,0,5.34.33" transform="translate(0 0)"/><path id="Stroke-21" class="cls-2" d="M25.46,10.94a20.22,20.22,0,0,0,2.68-.33c.3-.06,1.35-.46,1.56,0a6.89,6.89,0,0,1-.1,2A18,18,0,0,1,29.21,15a16.06,16.06,0,0,1-1.6,4.2l-.39.64a6.51,6.51,0,0,0-1.47,3.09c-.17,1.72.24,3.51-.14,5.19a3.2,3.2,0,0,0,0,2.2.9.9,0,0,0,.84.54c.23,0,.45-.15.67-.09.44.11.34.78.24,1.23-.42,1.92-1.2,3.66-1.48,5.63a25.2,25.2,0,0,0-.06,5H22.45a25.2,25.2,0,0,0-.06-5c-.29-2-1.06-3.71-1.49-5.63-.09-.45-.19-1.12.25-1.23.22-.06.44.07.66.09a.91.91,0,0,0,.85-.54,3.2,3.2,0,0,0,0-2.2c-.38-1.68,0-3.47-.14-5.19A6.51,6.51,0,0,0,21,19.79c-.13-.22-.27-.42-.39-.64a16.06,16.06,0,0,1-1.6-4.2,18,18,0,0,1-.39-2.35,6.9,6.9,0,0,1-.11-2c.22-.49,1.27-.09,1.57,0A21.3,21.3,0,0,0,25.46,10.94Z" transform="translate(0 0)"/></g></g></g></g></g></g></g></svg>