<?xml version="1.0" encoding="UTF-8"?>
<svg width="48px" height="48px" viewBox="0 0 48 48" version="1.1" xmlns="http://www.w3.org/2000/svg" xmlns:xlink="http://www.w3.org/1999/xlink">
    <title>CNCR_mammograms</title>
    <g id="CNCR_mammograms" stroke="none" stroke-width="1" fill="none" fill-rule="evenodd">
        <rect id="Rectangle" x="0" y="0" width="48" height="48"></rect>
        <g transform="translate(3.250009, 6.250000)">
            <path d="M37.5417518,28.75 L22.9582301,28.75 C21.1859695,28.75 19.7499909,27.0873823 19.7499909,25.0354074 L19.7499909,13.4645926 C19.7499909,11.4126177 21.1859695,9.75 22.9582301,9.75 L37.5417518,9.75 C39.3140124,9.75 40.7499909,11.4126177 40.7499909,13.4645926 L40.7499909,25.0354074 C40.7499909,27.0873823 39.3140124,28.75 37.5417518,28.75" id="Fill-8" fill="#90CDF0"></path>
            <path d="M37.5417518,9 L22.9582301,9 C20.7453493,9 18.9999909,11.0208266 18.9999909,13.4645926 L18.9999909,25.0354074 C18.9999909,27.4791734 20.7453493,29.5 22.9582301,29.5 L37.5417518,29.5 C39.7546326,29.5 41.4999909,27.4791734 41.4999909,25.0354074 L41.4999909,13.4645926 C41.4999909,11.0208266 39.7546326,9 37.5417518,9 Z M22.9582301,10.5 L37.5417518,10.5 C38.8733921,10.5 39.9999909,11.8044089 39.9999909,13.4645926 L39.9999909,25.0354074 C39.9999909,26.6955911 38.8733921,28 37.5417518,28 L22.9582301,28 C21.6265897,28 20.4999909,26.6955911 20.4999909,25.0354074 L20.4999909,13.4645926 C20.4999909,11.8044089 21.6265897,10.5 22.9582301,10.5 Z" id="Stroke-10" fill="#003B71" fill-rule="nonzero"></path>
            <path d="M26.1894317,0 C26.5691274,0 26.8829226,0.282153882 26.9325851,0.648229443 L26.9394317,0.75 L26.9371068,2.32120567 L26.9455536,2.50743508 C26.9547238,2.61210978 26.9715326,2.68356789 26.9993447,2.75624881 C27.0896738,2.99230499 27.3367928,3.24715381 27.8702901,3.56505456 L28.2074367,3.7551845 L30.7207733,5.11298228 C30.9585019,5.24342091 31.1859391,5.37007428 31.403615,5.49345384 L32.0278892,5.85428263 C33.2199905,6.55834329 34.0797703,7.1629601 34.7217298,7.77860989 C34.9115294,7.96063088 35.0787236,8.1416748 35.2229249,8.32310522 C35.8984713,9.1732493 36.4965809,10.1583167 37.0445743,11.2792573 C37.3597142,11.9238875 37.6491734,12.592954 37.9389696,13.331352 L38.2431387,14.1327626 L38.8528004,15.8146614 L39.5828796,17.7353981 L40.0968435,19.0515327 L40.3644129,19.7298452 C40.6182593,20.3715977 40.5093308,21.0946618 40.0907027,21.6324735 L39.9796243,21.7629127 L35.8956394,26.1507962 C35.2084352,26.8943782 34.0261403,26.7826097 33.4766454,25.9623806 L33.4459909,25.913 L31.1255456,22.9466862 C30.9000234,23.3669392 30.5814039,23.7708141 30.1605179,24.158984 L30.1942755,24.4994659 L30.2455615,24.9254982 L30.3496615,25.6716586 L30.4365547,26.2380855 L30.5369456,26.8577646 L30.7119088,27.8834988 L31.078732,29.9101058 L31.5262112,32.2749965 C31.7363094,33.3808493 30.9394369,34.4106003 29.8427921,34.494493 L29.6981095,34.5 L10.5616694,34.5 C9.40439013,34.5 8.5461155,33.4263872 8.75908612,32.2779725 L8.98821032,31.0275175 L9.26711509,29.4466082 L9.56403735,27.6496689 L9.66416153,26.9981644 L9.75243584,26.390487 L9.82806312,25.8302275 L9.89024619,25.320977 L9.9381879,24.8663263 C9.94494712,24.7953006 9.95107974,24.7266996 9.95656914,24.660598 C9.8595423,24.5913801 9.7643768,24.5196813 9.67032213,24.4438551 C9.18867183,24.0556074 8.81587983,23.6511794 8.54220284,23.2298537 L6.9678881,25.8281161 C6.49184864,26.7254442 5.32177787,26.917626 4.59538564,26.247672 L4.49475639,26.1460825 L0.506487302,21.7561267 C0.0108007524,21.2102528 -0.135182013,20.4258847 0.131375841,19.7354985 L0.648430142,18.3883042 L1.33680014,16.559403 L1.65530281,15.6825555 L2.32898376,13.7886096 C2.66975229,12.8673964 3.0028036,12.0588653 3.37200367,11.2855299 C3.90702482,10.1648616 4.49111599,9.17997509 5.1506812,8.33032091 C5.29137518,8.14874874 5.45463278,7.96745114 5.64000082,7.78516271 C6.2676253,7.16796527 7.10847276,6.56197631 8.27410152,5.8566506 L8.88449748,5.4951979 C8.99091315,5.43340552 9.09971336,5.37079534 9.21096267,5.30730341 L9.89492434,4.92371989 L12.1650559,3.66647882 C12.7990314,3.30342479 13.0797331,3.0224933 13.1770831,2.76186139 C13.2046446,2.68807199 13.2212924,2.61564327 13.2303773,2.51002892 L13.2387514,2.32239991 L13.2365028,0.75 C13.2365028,0.335786438 13.5722892,0 13.9865028,0 C14.3661985,0 14.6799937,0.282153882 14.7296562,0.648229443 L14.7365028,0.75 L14.7381672,2.03954833 C14.745942,2.63650506 14.7241245,2.9069124 14.5822615,3.28671724 C14.3643898,3.87001773 13.9069253,4.35829432 13.1297155,4.8379059 L12.8100652,5.02503824 L10.287088,6.42172143 L9.65999949,6.77956857 C9.4603128,6.89544312 9.26984285,7.00803118 9.08821152,7.11769674 L8.56945523,7.43828992 C7.747794,7.9592127 7.13764462,8.41617288 6.69173965,8.85466981 C6.55225753,8.99183465 6.43365126,9.12354693 6.33597667,9.2496001 C5.74803148,10.0069935 5.21743263,10.9016821 4.72565162,11.9317785 C4.43625516,12.5379553 4.16829246,13.1724116 3.89826713,13.8772959 L3.69994038,14.4067824 L2.93433478,16.5602645 L2.64105664,17.356136 L1.92341038,19.2542189 L1.53066839,20.2758506 C1.47879704,20.4101976 1.49406419,20.5610704 1.56656001,20.6802743 L1.61684567,20.7476108 L5.60573308,25.1382484 C5.61552415,25.1490574 5.62367221,25.1510082 5.64191223,25.1245527 L7.94772815,21.3189055 C7.92109942,20.1138414 8.45203383,18.7914874 9.37741313,17.3398331 L9.51910273,17.1211976 C10.3880001,15.8027531 10.5960985,14.8690521 10.4690724,14.2701302 L10.4313771,14.1249161 C10.2251105,13.7767497 10.3424011,13.3165889 10.6985624,13.105113 C11.0547236,12.8936372 11.5148844,13.0109278 11.7263603,13.3670891 C11.7776054,13.4533946 11.833291,13.5787584 11.8818001,13.7429855 C12.1727218,14.7278998 11.9497383,16.0559301 10.9380674,17.6864178 L10.7717356,17.9463708 C9.89834651,19.2727626 9.43358114,20.3714793 9.48844615,21.316256 C9.49621205,21.3584069 9.49959933,21.3965778 9.50004943,21.4349164 C9.5707678,22.1202531 9.92723114,22.724298 10.6117269,23.276055 C10.9445087,23.5443412 11.2848641,23.7331425 11.6337894,23.8505582 C12.8765786,24.2687648 14.2910085,23.7896312 15.7255316,22.6832677 C16.1145568,22.3832354 16.4729599,22.0603946 16.7907516,21.7380415 L16.9594722,21.5630581 L17.1730131,21.3251539 C17.4376472,21.0064979 17.9104972,20.9627044 18.2291533,21.2273385 C18.5478094,21.4919725 18.5916028,21.9648226 18.3269688,22.2834787 L18.2147724,22.413357 L18.0581905,22.5842527 L17.8589424,22.7911172 C17.4961087,23.1591588 17.0880673,23.5267126 16.6415973,23.8710486 C14.9300182,25.1910891 13.1439917,25.8286946 11.3965895,25.3460838 L11.3528181,25.7260585 L11.2823993,26.2753438 L11.152528,27.188306 L10.9381296,28.5545255 L10.6822153,30.0668477 L10.3132663,32.1226372 C10.2870919,32.2647878 10.2606286,32.4078439 10.2338922,32.5517369 C10.1944445,32.7644531 10.3220485,32.9531904 10.4949471,32.9925058 L10.5616694,33 L29.6981095,33 C29.923721,33 30.096939,32.7885 30.052621,32.5552318 L29.6039519,30.1840112 L29.3709301,28.9115819 L29.1108014,27.4239708 L28.9515049,26.4508817 L28.8229789,25.5966855 L28.7588078,25.1092396 C28.6224543,25.1708787 28.4843522,25.2251938 28.3445923,25.272224 C26.5206774,25.8859832 24.6487992,25.2518904 22.8583845,23.8710486 C22.4119146,23.5267126 22.0038732,23.1591588 21.6410395,22.7911172 L21.4417913,22.5842527 L21.2852095,22.413357 L21.1730131,22.2834787 C20.908379,21.9648226 20.9521725,21.4919725 21.2708286,21.2273385 C21.5894846,20.9627044 22.0623347,21.0064979 22.3269688,21.3251539 L22.5405096,21.5630581 L22.7092302,21.7380415 C23.027022,22.0603946 23.3854251,22.3832354 23.7744503,22.6832677 C25.2089734,23.7896312 26.6234033,24.2687648 27.8661925,23.8505582 C28.2151178,23.7331425 28.5554731,23.5443412 28.8882954,23.2760224 C29.5996103,22.7026471 29.9566741,22.0727975 30.0091164,21.3535364 C29.995648,21.2714453 29.9982043,21.188297 30.0140067,21.1075563 C29.997815,20.2643243 29.5915732,19.2998682 28.8701557,18.1655639 L28.7284081,17.9466164 C27.5751391,16.1966732 27.3119484,14.7797374 27.6181818,13.7429855 C27.6666908,13.5787584 27.7223765,13.4533946 27.7736216,13.3670891 C27.9850975,13.0109278 28.4452583,12.8936372 28.8014195,13.105113 C29.1279006,13.2989659 29.2536641,13.7017832 29.1094672,14.0419081 L29.0686047,14.1249161 L29.0567384,14.1679031 C28.8914128,14.7276122 29.0420543,15.6191612 29.8344738,16.8927215 L29.981041,17.1214432 C30.923923,18.5533721 31.4975365,19.8611707 31.5493878,21.0560336 L34.6506969,25.0173919 L34.7177605,25.1190963 C34.730036,25.1414789 34.749818,25.150924 34.7688605,25.1469252 L34.7958388,25.1307807 L38.8814991,20.7410902 C38.9973148,20.6165962 39.0313919,20.4378747 38.9695986,20.2816542 L38.1825966,18.2732177 L37.725454,17.0817108 L36.7104115,14.3145549 C36.376409,13.4330626 36.0524701,12.6652043 35.6969873,11.9380511 C35.1935267,10.9082041 34.6504105,10.0137091 34.0485997,9.25635774 C33.9486679,9.1306261 33.826798,8.998661 33.6834862,8.86122263 C33.2260001,8.42248582 32.6006489,7.9654816 31.7588174,7.44456598 L31.227352,7.12398208 L30.6415977,6.78586854 L29.6541486,6.24098103 L27.3076931,4.97197951 C26.3763869,4.45139985 25.8422785,3.92962774 25.5984103,3.29232982 C25.4847114,2.99520176 25.4458403,2.76458601 25.4379391,2.39496396 L25.4390667,1.92609249 L25.4394317,0.75 C25.4394317,0.335786438 25.7752181,0 26.1894317,0 Z" id="Combined-Shape" fill="#003B71" fill-rule="nonzero"></path>
        </g>
    </g>
</svg>