<?xml version="1.0" encoding="UTF-8"?>
<svg width="48px" height="48px" viewBox="0 0 48 48" version="1.1" xmlns="http://www.w3.org/2000/svg" xmlns:xlink="http://www.w3.org/1999/xlink">
    <title>CNCR_personalized_IMG</title>
    <g id="CNCR_personalized" stroke="none" stroke-width="1" fill="none" fill-rule="evenodd">
        <rect id="Rectangle" x="0" y="0" width="48" height="48"></rect>
        <path d="M20.43,13.89 C20.304535,13.6812897 20.1336316,13.5035501 19.93,13.37 C19.86,13.37 19.49,13.32 19.29,13.3 C18.8387303,13.284227 18.4100945,13.0984849 18.09,12.78 C18.0509998,12.7606011 18.0193989,12.7290002 18,12.69 C17.9436981,12.6077862 17.880108,12.5308087 17.81,12.46 L17.74,12.38 C17.55,12.19 17.41,12.19 17.08,12.21 C16.8702851,12.2254766 16.6597149,12.2254766 16.45,12.21 C16.1283737,12.1886305 15.822687,12.0621394 15.58,11.85 C15.0829953,12.08235 14.624378,12.3892189 14.22,12.76 C13.9762359,13.2158413 13.5383085,13.5360067 13.03,13.63 C12.857027,13.6486205 12.6825057,13.6137162 12.53,13.53 C12.5853825,13.9085582 12.3350289,14.2643239 11.96,14.34 L11.74,14.34 C11.5804328,14.6453448 11.3131544,14.8805497 10.99,15 C11.0288935,15.3275497 10.9312433,15.6566667 10.72,15.91 L10.61,16.01 C10.6322557,16.4098351 10.4745213,16.7986688 10.18,17.07 L10.34,17.25 C10.6090731,17.5071196 10.7130973,17.8923944 10.61,18.25 L10.5,18.41 C10.550952,18.6020523 10.6393069,18.7821603 10.76,18.94 L10.82,18.94 L11.02,18.83 C11.0455299,17.9604219 11.403414,17.1337096 12.02,16.52 C12.5039174,16.0945707 13.1369878,15.8787513 13.78,15.92 C14.2165466,15.9392769 14.6537985,15.9359391 15.09,15.91 L15.15,15.91 L15.95,15.78 L16.11,15.78 L16.18,15.78 C16.7862531,15.6816029 17.3776174,15.5068817 17.94,15.26 L18.05,15.26 C18.5689782,14.4775344 19.4411479,14.0021457 20.38,13.99 L20.43,13.89 Z" id="Path" fill="#92CCF0" fill-rule="nonzero"></path>
        <path d="M35.14,12.97 C33.1572004,12.1724216 30.9427996,12.1724216 28.96,12.97 C28.6873116,13.1346432 28.4266563,13.3184386 28.18,13.52 C29.1561325,14.0904062 29.91838,14.9650589 30.35,16.01 L30.35,16.01 C31.4256813,16.0317174 32.4790447,15.7016635 33.35,15.07 C33.6615677,14.8025589 34.0594033,14.6569227 34.47,14.66 L34.63,14.66 C35.081965,14.7007885 35.4975272,14.9248307 35.78,15.28 C36.2622797,15.8974628 36.6251522,16.5994685 36.85,17.35 C37.09,15.24 36.51,13.65 35.14,12.97 Z" id="Path" fill="#92CCF0" fill-rule="nonzero"></path>
        <path d="M28.79,16.2 C28.4967262,15.7012505 28.0887847,15.2795967 27.6,14.97 C27.2236715,14.7083946 26.8131607,14.4997744 26.38,14.35 C24.7881306,13.9097304 23.0815432,14.283982 21.82,15.35 C21.6267055,15.5224214 21.356518,15.5795032 21.11,15.5 C20.8971821,15.4125097 20.6700446,15.3650481 20.44,15.36 C20.1,15.36 19.58,15.48 19.01,16.47 C18.467319,17.673502 18.5342498,19.0641765 19.19,20.21 L19.19,20.15 C19.19,20.03 19.19,19.92 19.19,19.81 C19.19,19.7 19.26,19.56 19.3,19.44 L19.37,19.19 L19.46,18.92 C19.5072753,18.8006579 19.5606797,18.6838358 19.62,18.57 L19.7,18.38 C19.737379,18.3119992 19.7707687,18.2418807 19.8,18.17 C19.86,18.06 19.93,17.97 19.99,17.87 L20.09,17.71 C20.09,17.65 20.16,17.6 20.19,17.55 C20.2477614,17.4657425 20.3112443,17.3855537 20.38,17.31 L20.46,17.2 L20.57,17.07 L20.71,16.92 L20.8,16.82 L20.9,16.71 L20.97,16.66 C21.14,16.5 21.25,16.42 21.27,16.4 C21.4591384,16.2669316 21.6996105,16.2299359 21.92,16.3 C22.0433851,16.3365614 22.1564329,16.4016495 22.25,16.49 C23.45,17.77 24.31,17.88 26.48,17.88 C27.0959286,17.851261 27.6976041,18.0710347 28.15,18.49 C28.291528,18.6194807 28.4189086,18.7636219 28.53,18.92 L28.6,19.04 L28.6,19.09 L28.79,19.44 L28.85,19.63 C28.85,19.7 28.9,19.77 28.92,19.83 C29.2548296,18.8203697 29.2548296,17.7296303 28.92,16.72 C28.8875447,16.5637987 28.8441034,16.4100833 28.79,16.26 L28.79,16.2 Z" id="Path" fill="#92CCF0" fill-rule="nonzero"></path>
        <path d="M11.88,28.56 C11.836351,28.5201948 11.7790596,28.4987105 11.72,28.5 L7.72,28.5 C7.59849736,28.5 7.5,28.5984974 7.5,28.72 L7.5,29.59 C7.44516925,30.1856223 7.6205087,30.7796294 7.99,31.25 C8.41418722,31.7291067 9.03051773,31.9932484 9.67,31.97 L9.89,31.97 C10.5143286,31.9850769 11.1098629,31.7076541 11.5,31.22 C11.8491619,30.7111411 12.0019396,30.0929242 11.93,29.48 L11.93,28.77 C11.9492585,28.6960404 11.9305216,28.6173453 11.88,28.56 L11.88,28.56 Z M10.27,30.3 C10.1201752,30.4431182 9.91659094,30.5158269 9.71,30.5 C9.50967667,30.520971 9.30900682,30.4636368 9.15,30.34 C9.05329474,30.2393223 8.99339614,30.1089548 8.98,29.97 L10.42,29.97 C10.403991,30.0924868 10.3517581,30.2073992 10.27,30.3 L10.27,30.3 Z" id="Shape" fill="#003B71" fill-rule="nonzero"></path>
        <path d="M44.86,31.83 C44.3669116,28.2728163 41.3311802,25.6208149 37.74,25.61 L35.48,25.61 L35.33,25.61 L35.2,25.66 L35.09,25.77 L34.99,25.85 C34.99,25.85 34.99,25.85 34.93,25.91 C34.154852,26.8725109 33.0433905,27.505079 31.82,27.68 C31.7267724,27.6807057 31.6347521,27.7011547 31.55,27.74 C30.9971147,27.602544 30.4297123,27.5320383 29.86,27.53 L27.91,27.53 C27.7929753,27.5406617 27.6800168,27.5783145 27.58,27.64 L27.51,27.69 L27.4,27.78 C26.5928567,28.7068228 25.4240162,29.2388578 24.195,29.2388578 C22.9659838,29.2388578 21.7971433,28.7068228 20.99,27.78 L20.87,27.69 C20.7913481,27.6241093 20.6991728,27.5763147 20.6,27.55 L20.53,27.55 L20.41,27.55 L18.5,27.55 C17.7747861,27.5505071 17.05364,27.6583421 16.36,27.87 C16.2836259,27.8391412 16.2023432,27.8222074 16.12,27.82 C14.8949774,27.6290755 13.8064619,26.9324255 13.12,25.9 C13.0851829,25.8580521 13.0448114,25.8210449 13,25.79 C12.9664154,25.762144 12.9294583,25.7386258 12.89,25.72 L12.74,25.67 L12.63,25.67 L10.32,25.67 C6.34193081,25.686537 3.12893067,28.9219118 3.13997148,32.9 C3.14649253,34.2168094 4.03645901,35.3651532 5.31,35.7 C5.547437,35.7686104 5.79288804,35.8055962 6.04,35.81 L11.09,35.81 C11.418629,36.9400383 12.4531485,37.7179644 13.63,37.72 L34.72,37.72 C35.8970562,37.7155742 36.9289907,36.932446 37.25,35.8 L40.68,35.8 C40.8251709,35.7989344 40.9671637,35.7573755 41.09,35.68 L41.15,35.68 C44.95,32.53 44.92,32.26 44.86,31.83 Z M19.09,33.97 C19.1496019,33.878368 19.2507114,33.822196 19.36,33.82 C19.4122781,33.8049963 19.4677219,33.8049963 19.52,33.82 C19.5912626,33.8655465 19.6415965,33.9374521 19.66,34.02 C19.6894931,34.0938302 19.6894931,34.1761698 19.66,34.25 C19.6160901,34.3184927 19.5484259,34.3683505 19.47,34.39 C19.3937534,34.4246566 19.3062466,34.4246566 19.23,34.39 C19.0783925,34.3100786 19.0166668,34.1249016 19.09,33.97 Z M11.09,34.29 L8.95,34.29 L8.95,33.45 C8.98328025,33.1632276 8.84900555,32.8828104 8.60472967,32.7289427 C8.3604538,32.575075 8.0495462,32.575075 7.80527033,32.7289427 C7.56099445,32.8828104 7.42671975,33.1632276 7.46,33.45 L7.46,34.29 L6.09,34.29 C5.70809621,34.2874623 5.34331382,34.1311962 5.07800611,33.8564804 C4.81269839,33.5817646 4.66923348,33.2117604 4.68,32.83 C4.68,29.6874998 7.22749977,27.14 10.37,27.14 L12.22,27.14 C12.7998369,27.8580506 13.5259406,28.4443878 14.35,28.86 C12.523443,30.0942859 11.3314384,32.0687721 11.09,34.26 L11.09,34.29 Z M16.87,36.2100045 L16.87,35.36 C16.8261064,34.9817732 16.5057652,34.6964581 16.125,34.6964581 C15.7442348,34.6964581 15.4238936,34.9817732 15.38,35.36 L15.38,36.2100045 L13.68,36.2100045 C13.2090714,36.2113184 12.7866992,35.9204394 12.62,35.48 L12.62,35.42 C12.5955097,35.3418316 12.5787626,35.2614451 12.57,35.18 C12.5767797,35.1436467 12.5767797,35.1063533 12.57,35.07 C12.57,35.07 12.57,34.97 12.57,34.92 L12.57,34.76 C12.5648313,34.6667382 12.5648313,34.5732618 12.57,34.48 C12.8696181,31.3946646 15.4701847,29.0454861 18.57,29.0599331 L18.83,29.0599331 C18.5439544,29.5773798 18.3446457,30.1381467 18.24,30.72 C18.1199879,31.3812656 18.1199879,32.0587344 18.24,32.72 C17.7379653,33.1471294 17.511297,33.8156089 17.65,34.46 C17.7471662,34.9370403 18.0365283,35.3529983 18.45,35.61 L18.45,35.61 L18.54,35.61 C18.9276251,35.822766 19.3817147,35.8799741 19.81,35.77 C19.9004854,35.7431099 19.9876907,35.7062153 20.07,35.66 L20.18,35.6 L20.31,35.54 L20.41,35.48 C21.0220649,35.0585167 21.3056665,34.2995829 21.12,33.58 C21.0036168,33.1135546 20.7044992,32.7135298 20.29,32.47 C20.0967092,32.3555235 19.8825348,32.2807324 19.66,32.25 C19.5800508,31.7934738 19.5800508,31.3265262 19.66,30.87 C19.7442307,30.3811805 19.9207022,29.9128521 20.18,29.49 L23.09,36.18 L16.87,36.2100045 Z M22.18,30.4 C22.4667126,30.5076761 22.7608064,30.5945674 23.06,30.66 C23.4451289,30.7382202 23.8370112,30.7784132 24.23,30.78 L24.23,30.78 C24.9136078,30.7697708 25.5902774,30.6412036 26.23,30.4 L24.23,35.1 L22.18,30.4 Z M35.83,35.4 C35.6798233,35.8656676 35.2492423,36.1835732 34.76,36.19 L33.03,36.19 L33.03,35.34 C33.0245288,34.9296969 32.6903395,34.5999635 32.28,34.6 C31.8713093,34.6 31.54,34.9313093 31.54,35.34 L31.54,36.19 L25.35,36.19 L28.16,29.71 C28.5145731,30.214171 28.7254241,30.8052452 28.77,31.42 L28.77,31.42 C28.5182215,31.4875661 28.2832464,31.6067563 28.08,31.77 C27.6336123,32.1124608 27.3449962,32.6211468 27.28,33.18 L27.09,34.4 C27.09,34.4 27.09,34.49 27.09,34.53 C27.0846271,34.576512 27.0846271,34.623488 27.09,34.67 C27.10391,34.7158926 27.1241014,34.7596406 27.15,34.8 L27.21,34.93 C27.2416881,34.9684296 27.2787332,35.002107 27.32,35.03 C27.3484047,35.0650611 27.3821509,35.0954327 27.42,35.12 C27.4661621,35.1485078 27.5169117,35.1688077 27.57,35.18 L27.68,35.18 L28.15,35.26 L28.29,35.26 C28.6522978,35.2598994 28.961249,34.9975025 29.02,34.64 C29.0434871,34.3726141 28.9162884,34.1143622 28.69,33.97 L28.76,33.4 C28.7779578,33.2322497 28.8604349,33.0780534 28.99,32.97 C29.1074064,32.8819125 29.2542681,32.8425106 29.4,32.86 C29.7318079,32.9162455 29.9581581,33.2269221 29.91,33.56 L29.83,34.18 C29.5369383,34.2510681 29.3110958,34.4846982 29.25,34.78 C29.1831547,35.1875749 29.454046,35.5739281 29.86,35.65 L30.35,35.74 L30.48,35.74 C30.5660057,35.7551368 30.6539943,35.7551368 30.74,35.74 L30.82,35.74 L30.97,35.65 L31.03,35.57 L31.13,35.45 C31.1341287,35.4134496 31.1341287,35.3765504 31.13,35.34 C31.1526502,35.2992117 31.1694802,35.2554539 31.18,35.21 L31.18,35.21 L31.35,33.86 C31.4588831,32.9777484 31.0084089,32.1206516 30.22,31.71 C30.2250125,31.626742 30.2250125,31.543258 30.22,31.46 C30.1662531,30.6489171 29.9082542,29.8646003 29.47,29.18 L29.82,29.18 C33.1337085,29.18 35.82,31.8662915 35.82,35.18 C35.8161672,35.2507433 35.8061286,35.3210133 35.79,35.39 L35.83,35.4 Z M41.04,33.77 L40.43,32.84 C40.2817348,32.616709 40.0256077,32.4894782 39.7580995,32.5062341 C39.4905912,32.52299 39.2523425,32.6811872 39.1330994,32.9212341 C39.0138564,33.1612811 39.0317348,33.446709 39.18,33.67 L39.52,34.18 L37.3,34.18 C37.054621,31.8776876 35.7541336,29.8198141 33.78,28.61 C34.5290389,28.2562116 35.2069017,27.7681504 35.78,27.17 C35.9067112,27.258026 36.0270136,27.3549362 36.14,27.46 C36.4703229,27.7873016 36.741044,28.1696953 36.94,28.59 C36.777132,28.7454842 36.6478115,28.9326586 36.56,29.14 C36.370419,29.5847045 36.36987,30.0873912 36.5584792,30.5325088 C36.7470883,30.9776264 37.1086309,31.3268845 37.56,31.5 C37.7799445,31.5994138 38.0186323,31.6505612 38.26,31.65 C39.121867,31.6616872 39.8710529,31.0607454 40.0466557,30.2168763 C40.2222585,29.3730073 39.7749852,28.5230913 38.98,28.19 C38.799554,28.1106386 38.6066799,28.063266 38.41,28.05 C38.252042,27.6952937 38.0540928,27.3597867 37.82,27.05 C40.5411044,27.0771989 42.8663353,29.0176794 43.38,31.69 C42.99,32.1 42.09,32.9 40.97,33.81 L41.04,33.77 Z M38.04,29.96 C38.009878,29.8828354 38.009878,29.7971646 38.04,29.72 C38.07274,29.6459016 38.1340551,29.5881932 38.21,29.56 C38.2492953,29.5493814 38.2907047,29.5493814 38.33,29.56 C38.3694068,29.5502576 38.4105932,29.5502576 38.45,29.56 C38.5240984,29.59274 38.5818068,29.6540551 38.61,29.73 C38.640122,29.8071646 38.640122,29.8928354 38.61,29.97 C38.5785087,30.0472277 38.5172277,30.1085087 38.44,30.14 C38.3637534,30.1746566 38.2762466,30.1746566 38.2,30.14 C38.0848295,30.1398579 37.9799072,30.0737957 37.93,29.97 L38.04,29.96 Z" id="Shape" fill="#003B71" fill-rule="nonzero"></path>
        <path d="M9.93,20.3 C9.68703477,21.1260782 9.82643952,22.0175349 10.31,22.73 C10.5482732,23.0953298 10.8994416,23.3727528 11.31,23.52 C12.1542364,25.1246755 13.6736854,26.2660974 15.45,26.63 L15.57,26.63 C15.9476016,26.6903787 16.3323984,26.6903787 16.71,26.63 L16.93,26.63 L17.08,26.63 L17.22,26.63 L17.22,26.63 C17.743064,26.4926277 18.2397788,26.2696129 18.69,25.97 C18.9139475,25.8254358 19.1247583,25.6614718 19.32,25.48 L19.32,25.48 C19.79,26.31 21.32,28.67 24.12,28.67 C25.0391717,28.6660772 25.9379735,28.3988659 26.71,27.9 C27.292629,27.5114983 27.8091871,27.0320783 28.24,26.48 C28.4456688,26.2178983 28.6359874,25.9441066 28.81,25.66 C29.7340495,26.404346 30.906788,26.7690391 32.09,26.68 C34.85,26.68 36.41,24.34 36.89,23.5 C37.3005584,23.3527528 37.6517268,23.0753298 37.89,22.71 C38.383692,21.9743645 38.5126929,21.0529293 38.24,20.21 C38.1646314,19.9774246 38.0532805,19.7580971 37.91,19.56 L37.91,19.56 C39.01,15.81 38.21,12.85 35.78,11.65 C33.3543585,10.6673533 30.6370048,10.6925474 28.23,11.72 C27.6705399,12.035071 27.1670727,12.440548 26.74,12.92 C25.1309708,12.4148302 23.3823936,12.6261166 21.94,13.5 C21.6083007,12.8245448 21.0537889,12.2841607 20.37,11.97 C20.0420817,11.8905616 19.7071262,11.8436678 19.37,11.83 C19.2566867,11.8331226 19.1501775,11.7760641 19.09,11.68 L19.04,11.68 L19.04,11.68 C18.9856499,11.6084572 18.9254422,11.5415599 18.86,11.48 C18.3949993,10.9554508 17.6893153,10.7126348 17,10.84 L16.94,10.84 L16.6,10.84 L16.52,10.77 C16.2114751,10.4611192 15.758585,10.3459776 15.34,10.47 C14.4843188,10.7897156 13.7142303,11.303108 13.09,11.97 L13.09,11.97 C12.9782279,11.8685447 12.8496399,11.7873312 12.71,11.73 C12.349221,11.5481466 11.9171107,11.5828697 11.59,11.82 C11.3632745,11.9948814 11.2099445,12.2480541 11.16,12.53 C10.9284216,12.7251983 10.7698007,12.9930913 10.71,13.29 C10.71,13.36 10.63,13.53 10.59,13.64 C10.3248681,13.6633319 10.0767107,13.7803203 9.89,13.97 C9.6679514,14.226451 9.55966617,14.5621353 9.59,14.9 C9.38636393,15.0040031 9.23392623,15.1865266 9.16787577,15.4054367 C9.10182532,15.6243467 9.12787085,15.860723 9.24,16.06 C8.95397143,16.2597405 8.76807308,16.5732161 8.73,16.92 C8.69764875,17.3292468 8.82687893,17.734886 9.09,18.05 C8.99289463,18.8913193 9.30531155,19.7281504 9.93,20.3 Z M28.79,16.3 C28.8786613,16.450507 28.9555569,16.6076416 29.02,16.77 C29.3548296,17.7796303 29.3548296,18.8703697 29.02,19.88 C29.02,19.82 29.02,19.75 28.95,19.68 L28.89,19.49 L28.7,19.14 L28.7,19.09 L28.58,18.97 C28.4689086,18.8136219 28.341528,18.6694807 28.2,18.54 C27.7476041,18.1210347 27.1459286,17.901261 26.53,17.93 C24.36,17.93 23.53,17.82 22.3,16.54 C22.2064329,16.4516495 22.0933851,16.3865614 21.97,16.35 C21.7496105,16.2799359 21.5091384,16.3169316 21.32,16.45 C21.32,16.45 21.19,16.55 21.02,16.71 L20.95,16.76 L20.85,16.87 L20.76,16.97 L20.62,17.12 L20.51,17.25 L20.43,17.36 C20.3612443,17.4355537 20.2977614,17.5157425 20.24,17.6 C20.24,17.65 20.17,17.7 20.14,17.76 L20.04,17.92 C19.98,18.02 19.91,18.11 19.85,18.22 C19.8207687,18.2918807 19.787379,18.3619992 19.75,18.43 L19.67,18.62 C19.6106797,18.7338358 19.5572753,18.8506579 19.51,18.97 L19.42,19.24 L19.35,19.49 C19.35,19.61 19.27,19.73 19.24,19.86 C19.21,19.99 19.24,20.08 19.24,20.2 L19.24,20.26 C18.5842498,19.1141765 18.517319,17.723502 19.06,16.52 C19.63,15.52 20.15,15.41 20.49,15.41 C20.7200446,15.4150481 20.9471821,15.4625097 21.16,15.55 L21.16,15.55 C21.406518,15.6295032 21.6767055,15.5724214 21.87,15.4 C23.1315432,14.333982 24.8381306,13.9597304 26.43,14.4 C26.8631607,14.5497744 27.2736715,14.7583946 27.65,15.02 C28.1242009,15.3344807 28.5180722,15.7557518 28.8,16.25 L28.79,16.3 Z M11.03,15.05 C11.3531544,14.9305497 11.6204328,14.6953448 11.78,14.39 L12,14.39 C12.3750289,14.3143239 12.6253825,13.9585582 12.57,13.58 C12.7225057,13.6637162 12.897027,13.6986205 13.07,13.68 C13.5783085,13.5860067 14.0162359,13.2658413 14.26,12.81 C14.664378,12.4392189 15.1229953,12.13235 15.62,11.9 C15.862687,12.1121394 16.1683737,12.2386305 16.49,12.26 C16.6997149,12.2754766 16.9102851,12.2754766 17.12,12.26 C17.45,12.26 17.59,12.26 17.78,12.43 L17.85,12.51 C17.920108,12.5808087 17.9836981,12.6577862 18.04,12.74 C18.0593989,12.7790002 18.0909998,12.8106011 18.13,12.83 C18.4400214,13.1394209 18.8527349,13.3244305 19.29,13.35 C19.49,13.35 19.86,13.4 19.93,13.42 C20.1336316,13.5535501 20.304535,13.7312897 20.43,13.94 L20.43,13.94 C19.4969485,13.9375835 18.6222322,14.3936321 18.09,15.16 L17.98,15.16 C17.4176174,15.4068817 16.8262531,15.5816029 16.22,15.68 L16.15,15.68 L15.99,15.68 L15.19,15.81 L15.13,15.81 C14.6911699,15.8496258 14.2505703,15.8663152 13.81,15.86 C13.1669878,15.8187513 12.5339174,16.0345707 12.05,16.46 C11.433414,17.0737096 11.0755299,17.9004219 11.05,18.77 L10.85,18.88 L10.79,18.88 C10.6693069,18.7221603 10.580952,18.5420523 10.53,18.35 L10.64,18.19 C10.7430973,17.8323944 10.6390731,17.4471196 10.37,17.19 L10.21,17.01 C10.5045213,16.7386688 10.6622557,16.3498351 10.64,15.95 L10.75,15.85 C10.9375375,15.6262699 11.0370852,15.341848 11.03,15.05 L11.03,15.05 Z M35.14,12.97 C36.51,13.65 37.14,15.24 36.84,17.4 C36.6151522,16.6494685 36.2522797,15.9474628 35.77,15.33 C35.4875272,14.9748307 35.071965,14.7507885 34.62,14.71 L34.46,14.71 C34.0494033,14.7069227 33.6515677,14.8525589 33.34,15.12 C32.4690447,15.7516635 31.4156813,16.0817174 30.34,16.06 L30.34,16.06 C29.90838,15.0150589 29.1461325,14.1404062 28.17,13.57 C28.4166563,13.3684386 28.6773116,13.1846432 28.95,13.02 C30.9292681,12.2036694 33.1478031,12.1857491 35.14,12.97 L35.14,12.97 Z M18.2,24.43 C17.8298978,24.7287087 17.4054014,24.9528428 16.95,25.09 L16.55,25.17 L16.36,25.17 L16.1,25.17 C13.75,25.17 12.5,22.53 12.49,22.5 C12.3728434,22.2400831 12.1150926,22.0721546 11.83,22.07 C11.7037548,22.0355461 11.5960486,21.9529713 11.53,21.84 C11.3072177,21.4927801 11.2452453,21.0662637 11.36,20.67 C11.3937751,20.5657686 11.4444504,20.4677964 11.51,20.38 L11.57,20.31 L11.66,20.21 L11.72,20.21 L11.78,20.21 L11.83,20.21 C12.2229911,20.1887266 12.5305754,19.863566 12.53,19.47 C12.4652506,18.8533346 12.6447514,18.235852 13.03,17.75 C13.2710961,17.5620211 13.5761925,17.4758762 13.88,17.51 C15.0193963,17.4962938 16.1534659,17.3520186 17.26,17.08 C16.9810021,18.6660043 17.34047,20.2979887 18.26,21.62 C18.1326659,21.8015285 18.0316644,22.0001649 17.96,22.21 C17.7393463,22.9522686 17.825808,23.7520391 18.2,24.43 Z M28.72,23.81 C28.62,23.95 28.51,24.04 28.42,24.04 C28.1370899,24.0492411 27.8827572,24.2149427 27.76,24.47 C27.71,24.58 26.47,27.14 24.14,27.14 C21.81,27.14 20.53,24.5 20.52,24.48 C20.4000578,24.2210517 20.1451608,24.0511204 19.86,24.04 C19.77,24.04 19.66,23.95 19.56,23.81 C19.3372177,23.4627801 19.2752453,23.0362637 19.39,22.64 C19.4508548,22.4458857 19.5694646,22.2749482 19.73,22.15 L19.88,22.08 C20.2674067,22.053453 20.5662279,21.7282653 20.56,21.34 C20.56,21.12 20.56,20.9 20.56,20.69 C20.6280386,20.0886693 20.8077869,19.5053351 21.09,18.97 C21.2554812,18.6375026 21.4639318,18.3281888 21.71,18.05 C22.8461304,19.0196534 24.3210156,19.4980918 25.81,19.38 L26.11,19.38 C26.2629675,19.3949792 26.4170325,19.3949792 26.57,19.38 C26.7945233,19.3891908 27.0094074,19.4737353 27.18,19.62 C27.5652486,20.105852 27.7447494,20.7233346 27.68,21.34 C27.6823073,21.7176567 27.9650645,22.0346874 28.34,22.08 C28.4085702,22.0919486 28.4735348,22.1193021 28.53,22.16 C28.6815037,22.2850905 28.7928025,22.4520387 28.85,22.64 C28.976648,23.0305773 28.9292955,23.4567497 28.72,23.81 L28.72,23.81 Z M36.66,21.86 L36.66,21.86 C36.66,21.91 36.5,22.08 36.36,22.08 C36.0748392,22.0911204 35.8199422,22.2610517 35.7,22.52 C35.7,22.52 34.46,25.19 32.09,25.19 C31.3438535,25.2301058 30.6044558,25.0303633 29.98,24.62 C30.4534342,23.8872952 30.5744791,22.9812924 30.31,22.15 C30.2242525,21.9067932 30.1029346,21.6776371 29.95,21.47 C30.5760045,20.2671741 30.846554,18.9109578 30.73,17.56 C32.0264106,17.477995 33.2706632,17.0192203 34.31,16.24 C34.361251,16.2086 34.41991,16.1913474 34.48,16.19 C34.5334153,16.1962481 34.5829524,16.2210166 34.62,16.26 C35.2964295,17.1608836 35.6488,18.2638034 35.62,19.39 C35.6316017,19.7731195 35.9198452,20.0910352 36.3,20.14 C36.3,20.14 36.62,20.14 36.79,20.69 C36.9221047,21.0800038 36.8744932,21.5085071 36.66,21.86 Z" id="Shape" fill="#003B71" fill-rule="nonzero"></path>
    </g>
</svg>