<svg xmlns="http://www.w3.org/2000/svg" viewBox="0 0 297 49">
  <path class="icon-gray" d="M6.852,45.959H4.49v-11.2H.238V32.566H11.094v2.192H6.852Zm8.581,0H13.121V32.007H15.45v5.431a3.632,3.632,0,0,1,3.156-1.781c2.274,0,3.595,1.529,3.595,3.88v6.422H19.872V40.227c0-1.567-.784-2.466-2.164-2.466a2.212,2.212,0,0,0-2.258,2.5Zm14.018-1.644a3.671,3.671,0,0,0,2.739-1.206l1.354,1.206a5.1,5.1,0,0,1-4.126,1.89,5.042,5.042,0,0,1-5.2-4.874c0-.134,0-.268,0-.4a5.016,5.016,0,0,1,4.932-5.277c3.211,0,4.839,2.527,4.839,5.447a6.019,6.019,0,0,1-.039.63H26.541a2.833,2.833,0,0,0,2.91,2.57ZM31.7,40.222a2.62,2.62,0,0,0-2.559-2.658,2.737,2.737,0,0,0-2.62,2.658Zm15.261,1.457H44.306v4.3H41.955V32.583h5.277c3.118,0,5.085,1.753,5.085,4.488-.005,3.024-2.411,4.592-5.353,4.592Zm.076-6.943H44.3v4.817H47.04c1.776,0,2.883-.975,2.883-2.406,0-1.6-1.129-2.427-2.883-2.427Zm11.891,9.579a3.673,3.673,0,0,0,2.74-1.206l1.354,1.206a5.1,5.1,0,0,1-4.126,1.89,5.041,5.041,0,0,1-5.187-4.892q0-.181,0-.363a5.019,5.019,0,0,1,4.931-5.277c3.217,0,4.839,2.527,4.839,5.447a6.3,6.3,0,0,1-.038.63H56A2.832,2.832,0,0,0,58.931,44.3Zm2.258-4.093a2.624,2.624,0,0,0-2.564-2.658,2.736,2.736,0,0,0-2.62,2.658Zm6.746,5.753H65.622v-10.1h2.313v2.274a3.573,3.573,0,0,1,3.572-2.466v2.444h-.131c-2.028,0-3.441,1.32-3.441,3.994Zm17.206-10.3c2.192,0,3.534,1.4,3.534,3.864v6.438H86.363V40.227c0-1.606-.745-2.466-2.044-2.466s-2.159.877-2.159,2.5v5.694H79.847V40.205c0-1.567-.767-2.444-2.049-2.444s-2.159.954-2.159,2.521v5.677H73.327V35.871h2.312V37.4a3.625,3.625,0,0,1,3.08-1.742,3.161,3.161,0,0,1,3,1.781,4.121,4.121,0,0,1,3.425-1.781Zm12.335,10.3V44.737a4.09,4.09,0,0,1-3.288,1.452c-1.913,0-3.595-1.1-3.595-3.118v-.038c0-2.192,1.743-3.25,4.094-3.25a8.548,8.548,0,0,1,2.789.422v-.247c0-1.4-.877-2.191-2.488-2.191a7.074,7.074,0,0,0-2.882.63l-.614-1.852a8.623,8.623,0,0,1,3.836-.839c2.981,0,4.433,1.567,4.433,4.263v5.979ZM97.53,41.7a6.554,6.554,0,0,0-2.312-.4c-1.452,0-2.312.591-2.312,1.643v.039c0,.959.86,1.49,1.95,1.49,1.529,0,2.674-.86,2.674-2.12Zm7.124,4.279h-2.312v-10.1h2.312v1.567a3.632,3.632,0,0,1,3.156-1.781c2.274,0,3.595,1.529,3.595,3.88v6.422h-2.318V40.227c0-1.567-.783-2.466-2.159-2.466a2.226,2.226,0,0,0-2.274,2.5Zm14.017-1.644a3.66,3.66,0,0,0,2.74-1.205l1.359,1.205a5.1,5.1,0,0,1-4.126,1.891,5.041,5.041,0,0,1-5.186-4.892c0-.121,0-.242,0-.363a5.016,5.016,0,0,1,4.932-5.277c3.211,0,4.838,2.526,4.838,5.447a3.575,3.575,0,0,1-.038.63h-7.463A2.827,2.827,0,0,0,118.66,44.3Zm2.252-4.093a2.619,2.619,0,0,0-2.559-2.658,2.736,2.736,0,0,0-2.619,2.658Zm6.751,5.754h-2.312V35.871h2.312v1.567a3.619,3.619,0,0,1,3.151-1.781c2.274,0,3.595,1.529,3.595,3.88v6.422h-2.313V40.227c0-1.567-.783-2.466-2.159-2.466a2.226,2.226,0,0,0-2.274,2.5Zm12.138-3.151a1.1,1.1,0,0,0,1.244,1.26,3.115,3.115,0,0,0,1.435-.345v1.9a4.081,4.081,0,0,1-2.087.515c-1.7,0-2.905-.745-2.905-2.965V37.887h-1.282V35.871H137.5V33.1h2.313v2.773h2.74v1.983h-2.74Zm9.524,1.49a3.67,3.67,0,0,0,2.74-1.205l1.353,1.205a5.1,5.1,0,0,1-4.126,1.891,5.043,5.043,0,0,1-5.187-4.892q0-.181,0-.363a5.019,5.019,0,0,1,4.932-5.277c3.211,0,4.838,2.526,4.838,5.447,0,.21-.015.421-.038.63h-7.436a2.832,2.832,0,0,0,2.91,2.531Zm2.252-4.093a2.62,2.62,0,0,0-2.559-2.658,2.737,2.737,0,0,0-2.62,2.658ZM168.416,42.7h-.082l-4.187-6.269v9.557h-2.312V32.583h2.5l4.072,6.323,4.071-6.323h2.5V45.959h-2.351v-9.6Zm14.247,1.644a3.673,3.673,0,0,0,2.74-1.206l1.354,1.206a5.1,5.1,0,0,1-4.176,1.841A5.041,5.041,0,0,1,177.4,41.3c0-.121,0-.242,0-.363a5.016,5.016,0,0,1,4.932-5.277c3.211,0,4.839,2.526,4.839,5.447a3.484,3.484,0,0,1-.039.63h-7.408A2.832,2.832,0,0,0,182.63,44.3Zm2.252-4.094a2.619,2.619,0,0,0-2.559-2.657,2.736,2.736,0,0,0-2.619,2.657Zm12.056,5.754V44.326a4.046,4.046,0,0,1-3.442,1.9c-2.367,0-4.679-1.9-4.679-5.255s2.274-5.261,4.679-5.261a4.173,4.173,0,0,1,3.442,1.781v-5.48h2.312V45.959Zm-2.932-8.367a2.969,2.969,0,0,0-2.9,3.255,2.974,2.974,0,0,0,2.9,3.249,3.025,3.025,0,0,0,2.926-3.249A3.039,3.039,0,0,0,194.039,37.641Zm7.935-3.343V32.106h2.488V34.3Zm.1,11.639V35.871h2.313V45.959Zm9.809.23a5.161,5.161,0,0,1-5.222-5.1q0-.069,0-.138a5.21,5.21,0,0,1,5.128-5.292h.11a5.03,5.03,0,0,1,4.034,1.743L214.5,38.923a3.4,3.4,0,0,0-2.619-1.261,3.04,3.04,0,0,0-2.91,3.234A3.115,3.115,0,0,0,212,44.183a3.551,3.551,0,0,0,2.619-1.26l1.392,1.375a5.1,5.1,0,0,1-4.126,1.891Zm12.236-.23V44.7a4.089,4.089,0,0,1-3.288,1.453c-1.912,0-3.594-1.1-3.594-3.118v-.039c0-2.192,1.742-3.249,4.093-3.249a8.518,8.518,0,0,1,2.789.422V39.92c0-1.4-.877-2.192-2.482-2.192a7.1,7.1,0,0,0-2.888.68l-.614-1.863a8.626,8.626,0,0,1,3.836-.839c2.981,0,4.433,1.567,4.433,4.263v5.979Zm.055-4.28a6.584,6.584,0,0,0-2.312-.4c-1.453,0-2.313.592-2.313,1.644v.038c0,.959.86,1.491,1.951,1.491,1.529,0,2.674-.86,2.674-2.121Zm4.932,4.28V32.007h2.318V45.959Zm17.3.23a6.642,6.642,0,0,1-6.938-6.9,6.824,6.824,0,0,1,6.706-6.937c.065,0,.129,0,.193,0a7.21,7.21,0,0,1,5.14,1.814l-1.49,1.78a5.221,5.221,0,0,0-3.743-1.435,4.517,4.517,0,0,0-4.34,4.74,4.475,4.475,0,0,0,4.548,4.8,5.48,5.48,0,0,0,3.228-1.014v-2.5h-3.419V38.463h5.7v5.644a8.535,8.535,0,0,1-5.584,2.082Zm10.493-.23H254.59V35.871H256.9v2.274a3.582,3.582,0,0,1,3.579-2.466v2.444h-.137c-2.022,0-3.442,1.32-3.442,3.994Zm10.193.23a5.221,5.221,0,0,1-5.352-5.089c0-.05,0-.1,0-.15a5.381,5.381,0,1,1,5.522,5.237C267.207,46.167,267.151,46.167,267.1,46.167Zm0-8.505a3.039,3.039,0,0,0-3.042,3.234,3.123,3.123,0,0,0,2.955,3.283c.042,0,.083,0,.125,0a3.038,3.038,0,0,0,3.058-3.233,3.119,3.119,0,0,0-2.967-3.262l-.129,0Zm14.2-1.813h2.312V45.937H281.3V44.37a3.618,3.618,0,0,1-3.151,1.781c-2.274,0-3.595-1.529-3.595-3.88v-6.4h2.313V41.6c0,1.568.783,2.466,2.159,2.466a2.226,2.226,0,0,0,2.274-2.5Zm10.768,10.3a4.118,4.118,0,0,1-3.425-1.781V49h-2.313V35.849h2.313v1.676a4.042,4.042,0,0,1,3.425-1.89c2.389,0,4.7,1.89,4.7,5.261s-2.3,5.276-4.7,5.276Zm-.548-8.51a3.039,3.039,0,0,0-2.943,3.255,3.034,3.034,0,0,0,2.943,3.249A2.974,2.974,0,0,0,294.4,40.9a2.971,2.971,0,0,0-2.876-3.255Z"/>
  <path class="icon-blue" d="M55.726.488h5.54V19.251H58.109V3.277L54.022,19.251H50.778l-4.094-16v16H43.506V.494h5.661l3.227,13.584ZM73.4.488l6.488,18.763H76.505l-1.814-5.42H67.809l-1.738,5.414H62.9L69.392.488Zm.422,10.724-2.6-7.759H71.14l-2.493,7.759ZM93,14.955,85.59.488H81.327V19.251H84.39V5.108l7.348,14.143h4.423V.488H93.037Zm61.329,1.556h-7.677v-5.3h5.693V8.472h-5.693V3.19h7.041V.488H143.445V19.251H154.35ZM124.255.488v14.62L116.825.488h-4.269V16.511h-9.842V11.217h5.694V8.478h-5.694V3.19h7.036V.488H99.509V19.251h16.11V4.96l7.343,14.291h4.422V3.321h5.682V19.245h3.255V3.321h5.54V.488ZM38.8,9.8a5.414,5.414,0,0,1-2.5,1.205l5.041,8.22H37.467s-3.156-5.639-4.641-7.984H31.215v8.006H14.858V.483H25.105v2.7H18.064V8.489h5.7v2.739h-5.7v5.294h9.9V.488h5.441c2.7,0,4.3.373,5.43,1.359A5.145,5.145,0,0,1,40.58,5.809,5.214,5.214,0,0,1,38.8,9.8m-4.85-1.277c2.466,0,3.447-.876,3.447-2.679,0-1.644-1-2.6-3.447-2.6H31.21V8.521ZM11.105,1.9a5.634,5.634,0,0,1,.206,7.964c-.067.07-.136.139-.206.206-1.135.986-2.7,1.463-5.409,1.463H3.5v7.716H.233V.488H5.674c2.707,0,4.3.428,5.431,1.414M6.222,8.79c2.323,0,3.441-1.1,3.441-2.817s-1-2.74-3.441-2.74H3.482V8.79h2.74M183.765,19.251V.483h-2.7l-6.526,16.033L167.961.483h-2.707V19.251H166.9V2.066l7.19,17.185h.821l7.206-17.185V19.251ZM218.09,5.771a9.2,9.2,0,0,1,.871,4.093,9.159,9.159,0,0,1-.871,4.1,8.988,8.988,0,0,1-2.291,2.926,9.742,9.742,0,0,1-3.184,1.765,11.344,11.344,0,0,1-3.518.592H188.061V.483h11.507V1.9h-9.863v6.85h9.238v1.413h-9.277v7.672H202.9V.483h6.175a11.131,11.131,0,0,1,3.518.586,9.758,9.758,0,0,1,3.184,1.764,8.923,8.923,0,0,1,2.291,2.938Zm-.866,4.093a8.33,8.33,0,0,0-.548-2.937,7.386,7.386,0,0,0-1.606-2.543,8.021,8.021,0,0,0-2.718-1.814,9.826,9.826,0,0,0-3.835-.685h-4.006V17.826h4.006a9.826,9.826,0,0,0,3.835-.685,8.018,8.018,0,0,0,2.707-1.8,7.386,7.386,0,0,0,1.606-2.543,8.327,8.327,0,0,0,.537-2.937ZM222.232.483V19.251h1.644V.483ZM242.4,1.754a8.234,8.234,0,0,0-1.584-.937,9.7,9.7,0,0,0-3.9-.817,10.114,10.114,0,0,0-3.891.74,9.316,9.316,0,0,0-5.151,5.168,10.345,10.345,0,0,0-.745,3.956,10.541,10.541,0,0,0,.729,3.956,9.278,9.278,0,0,0,5.134,5.19,10.248,10.248,0,0,0,3.929.745,9.273,9.273,0,0,0,2.34-.285,8.924,8.924,0,0,0,1.951-.789,7.718,7.718,0,0,0,1.556-1.1,7.846,7.846,0,0,0,1.058-1.222l-1.25-.8a6.025,6.025,0,0,1-2.455,2.082,7.666,7.666,0,0,1-3.183.691,8.12,8.12,0,0,1-3.4-.707A7.623,7.623,0,0,1,231,15.777a8.334,8.334,0,0,1-1.606-2.691,9.331,9.331,0,0,1-.548-3.222,9.577,9.577,0,0,1,.548-3.222,8.159,8.159,0,0,1,1.595-2.691A7.676,7.676,0,0,1,233.542,2.1a8.094,8.094,0,0,1,3.392-.685,6.915,6.915,0,0,1,1.748.219,7.49,7.49,0,0,1,1.5.581,5.45,5.45,0,0,1,1.206.828,5.108,5.108,0,0,1,.729.811l1.364-1a5.522,5.522,0,0,0-1.1-1.1Zm4.071,17.5h1.644V.483h-1.644ZM252.393.483V19.251h1.643V2.412l11.387,16.839h2.192V.483h-1.644V17.146L254.557.483Zm21.124,9.682h9.239V8.752H273.5V1.9h9.863V.483H271.851V19.251h11.836V17.826H273.5Z"/>
  <path class="icon-blue" d="M288.78,16.267h.759l1.14,1.888h.743L290.18,16.24a1.128,1.128,0,0,0,1.13-1.127c0-.022,0-.044,0-.067,0-.857-.5-1.237-1.535-1.237h-1.655V18.15h.662Zm0-1.915h.9c.456,0,.944.1.944.635,0,.667-.494.71-1.052.71l-.787.028Z"/>
  <path class="icon-blue" d="M289.545,19.75a3.8,3.8,0,1,0-2.685-1.112A3.785,3.785,0,0,0,289.545,19.75Zm-2.18-5.978a3.079,3.079,0,1,1-.905,2.18A3.075,3.075,0,0,1,287.365,13.772Z"/>
</svg>
