
<svg xmlns="http://www.w3.org/2000/svg" viewBox="0 0 173 29">
  <g id="Layer_1" data-name="Layer 1">
    <path d="M68.933,21.044a2.927,2.927,0,0,0-2.878,3.079c0,.071,0,.141,0,.212a2.942,2.942,0,0,0,3.026,2.854,2.977,2.977,0,0,0,2.407-1.1l-.793-.7a2.137,2.137,0,0,1-1.6.7l-.007-.019a1.65,1.65,0,0,1-1.71-1.477h4.354a2.011,2.011,0,0,0,.023-.368C71.756,22.518,70.806,21.044,68.933,21.044ZM67.389,23.7a1.6,1.6,0,0,1,1.528-1.551A1.529,1.529,0,0,1,70.41,23.7Z"/>
    <path d="M39.495,22.477V21.15H38.146v5.9h1.349V24.794c0-1.56.825-2.33,2.008-2.33h.077V21.038A2.086,2.086,0,0,0,39.495,22.477Z"/>
    <path d="M49.534,21.035v-.01a2.4,2.4,0,0,0-2,1.039,1.847,1.847,0,0,0-1.749-1.039,2.111,2.111,0,0,0-1.8,1.017V21.15H42.641v5.885H43.99V23.723c0-.914.512-1.47,1.26-1.47s1.2.511,1.2,1.426v3.356h1.349V23.714c0-.95.5-1.461,1.26-1.461s1.193.5,1.193,1.438v3.354H51.6V23.289A1.982,1.982,0,0,0,49.534,21.035Z"/>
    <path d="M55.477,21.054a5.031,5.031,0,0,0-2.238.489l.358,1.081a4.115,4.115,0,0,1,1.682-.368c.939,0,1.451.463,1.451,1.279v.144a4.994,4.994,0,0,0-1.627-.247c-1.372,0-2.388.617-2.388,1.9v.023a1.887,1.887,0,0,0,2.1,1.819,2.383,2.383,0,0,0,1.918-.848v.723l1.333-.016V23.541A2.272,2.272,0,0,0,55.477,21.054Zm1.285,3.875c0,.735-.668,1.237-1.56,1.237-.636,0-1.138-.31-1.138-.87v-.022c0-.614.5-.959,1.349-.959a3.831,3.831,0,0,1,1.349.233Z"/>
    <path d="M163.975,24.471a1.3,1.3,0,0,1-1.327,1.461c-.8,0-1.259-.524-1.259-1.438V21.15H160.04v3.734a2.022,2.022,0,0,0,2.1,2.263,2.109,2.109,0,0,0,1.838-1.039v.915h1.349V21.137h-1.349Z"/>
    <path d="M143.553,23.858h2v1.461a3.207,3.207,0,0,1-1.883.591,2.61,2.61,0,0,1-2.654-2.8,2.636,2.636,0,0,1,2.532-2.766,3.048,3.048,0,0,1,2.184.838l.869-1.039a4.2,4.2,0,0,0-3-1.058c-.038,0-.076,0-.113,0a3.979,3.979,0,0,0-3.912,4.047,3.874,3.874,0,0,0,4.047,4.025v.013a4.985,4.985,0,0,0,3.258-1.215V22.662h-3.325Z"/>
    <path d="M10.716,21.025a2.119,2.119,0,0,0-1.841,1.039V18.9H7.516v8.139H8.865l.01-3.321a1.29,1.29,0,0,1,1.317-1.461c.8,0,1.263.524,1.263,1.438v3.344h1.358V23.289A2.022,2.022,0,0,0,10.716,21.025Z"/>
    <path d="M170.257,21.012a2.362,2.362,0,0,0-2,1.1v-.978H166.91V28.81h1.349v-2.7a2.4,2.4,0,0,0,2,1.039v.013A2.832,2.832,0,0,0,173,24.081,2.828,2.828,0,0,0,170.257,21.012Zm-.32,4.965a1.77,1.77,0,0,1-1.716-1.9,1.773,1.773,0,0,1,1.716-1.9h.007a1.734,1.734,0,0,1,1.678,1.9A1.736,1.736,0,0,1,169.937,25.977Z"/>
    <path d="M76.187,21.025a2.111,2.111,0,0,0-1.839,1.039V21.15H73v5.905h1.349V23.714a1.3,1.3,0,0,1,1.327-1.461c.8,0,1.26.524,1.26,1.438v3.344h1.349V23.289A2.023,2.023,0,0,0,76.187,21.025Z"/>
    <path d="M34.076,21.035A2.928,2.928,0,0,0,31.2,24.113c0,.071,0,.142,0,.212a2.94,2.94,0,0,0,3.025,2.854,2.978,2.978,0,0,0,2.408-1.1l-.79-.7a2.139,2.139,0,0,1-1.6.7v-.009a1.654,1.654,0,0,1-1.711-1.487h4.345a3.478,3.478,0,0,0,.022-.368C36.9,22.508,35.953,21.035,34.076,21.035Zm-1.541,2.653a1.6,1.6,0,0,1,1.529-1.55,1.531,1.531,0,0,1,1.5,1.55Z"/>
    <polygon points="0 20.501 2.481 20.501 2.481 27.035 3.859 27.035 3.859 20.501 6.333 20.501 6.333 19.222 0 19.222 0 20.501"/>
    <path d="M16.867,21.022A2.926,2.926,0,0,0,13.99,24.1c0,.078,0,.156,0,.235a2.941,2.941,0,0,0,3.036,2.843,2.977,2.977,0,0,0,2.407-1.1l-.79-.7a2.137,2.137,0,0,1-1.6.7v-.009a1.654,1.654,0,0,1-1.7-1.5h4.323c.013-.122.021-.244.022-.367C19.69,22.5,18.741,21.022,16.867,21.022Zm-1.531,2.666a1.6,1.6,0,0,1,1.528-1.55,1.529,1.529,0,0,1,1.493,1.55Z"/>
    <path d="M27.417,19.232H24.338v7.813H25.71V24.539h1.55v-.01c1.717,0,3.121-.914,3.124-2.679C30.384,20.255,29.236,19.232,27.417,19.232ZM27.305,23.3h-1.6v-2.81h1.6v-.01c1.023,0,1.682.48,1.682,1.417C28.987,22.729,28.341,23.3,27.305,23.3Z"/>
    <path d="M62.759,21.025a2.119,2.119,0,0,0-1.841,1.039V21.15H59.569v5.9h1.349V23.714a1.3,1.3,0,0,1,1.327-1.461c.8,0,1.259.524,1.259,1.438v3.344h1.353V23.289A2.023,2.023,0,0,0,62.759,21.025Z"/>
    <path d="M123.543,26a1.818,1.818,0,0,1-1.765-1.919,1.773,1.773,0,0,1,1.7-1.886A1.983,1.983,0,0,1,125,22.93l.835-.9a2.938,2.938,0,0,0-2.353-1.017h-.065a3.04,3.04,0,0,0-2.992,3.088v.08a3.013,3.013,0,0,0,3.047,2.976v.013a2.975,2.975,0,0,0,2.407-1.1l-.812-.8A2.076,2.076,0,0,1,123.543,26Z"/>
    <rect x="117.696" y="18.953" width="1.451" height="1.279"/>
    <polygon points="117.753 27.023 119.103 27.035 119.103 21.15 117.753 21.15 117.753 27.023"/>
    <path d="M149.742,22.477V21.15h-1.349v5.873h1.349V24.794c0-1.56.828-2.33,2.008-2.33h.08V21.038A2.089,2.089,0,0,0,149.742,22.477Z"/>
    <path d="M81.43,19.532H80.081V21.15h-.749v1.176h.749v3.1a1.51,1.51,0,0,0,1.694,1.73,2.391,2.391,0,0,0,1.218-.3V25.75a1.833,1.833,0,0,1-.838.2.651.651,0,0,1-.2,0,.639.639,0,0,1-.528-.734V22.307h1.6V21.15h-1.6Z"/>
    <path d="M114.777,22.093a2.432,2.432,0,0,0-2.008-1.039,2.817,2.817,0,0,0-2.73,3.069,2.827,2.827,0,0,0,2.73,3.066,2.359,2.359,0,0,0,2.008-1.106v.981l1.349-.029V18.9h-1.349Zm-1.71,3.884a1.735,1.735,0,0,1-1.695-1.9,1.734,1.734,0,0,1,1.695-1.9,1.774,1.774,0,0,1,1.707,1.9A1.765,1.765,0,0,1,113.067,25.977Z"/>
    <path d="M106.235,21.025a2.926,2.926,0,0,0-2.877,3.079c0,.07,0,.141,0,.212a2.942,2.942,0,0,0,3.026,2.854,2.977,2.977,0,0,0,2.436-1.075l-.79-.7a2.137,2.137,0,0,1-1.6.7l-.019-.028a1.654,1.654,0,0,1-1.7-1.5h4.322a2.016,2.016,0,0,0,.023-.368C109.058,22.5,108.108,21.025,106.235,21.025Zm-1.512,2.682a1.6,1.6,0,0,1,1.528-1.55,1.529,1.529,0,0,1,1.493,1.55Z"/>
    <path d="M155.62,20.879a3.139,3.139,0,0,0-3.055,3.222c0,.029,0,.058,0,.087a3.046,3.046,0,0,0,3.122,2.969h.1a3.14,3.14,0,1,0-.166-6.277ZM155.711,26l-.073,0a1.823,1.823,0,0,1-1.724-1.916,1.772,1.772,0,0,1,1.774-1.886v.013l.076,0a1.82,1.82,0,0,1,1.731,1.9A1.773,1.773,0,0,1,155.711,26Z"/>
    <path d="M86.82,21.044a2.929,2.929,0,0,0-2.878,3.079c0,.071,0,.141,0,.212a2.942,2.942,0,0,0,3.026,2.854,2.977,2.977,0,0,0,2.407-1.1l-.79-.7a2.144,2.144,0,0,1-1.6.7l-.006-.019a1.653,1.653,0,0,1-1.7-1.477H89.62c.014-.122.021-.245.023-.368C89.643,22.518,88.693,21.044,86.82,21.044ZM85.279,23.7a1.6,1.6,0,0,1,1.528-1.551A1.529,1.529,0,0,1,88.3,23.7Z"/>
    <path d="M129.362,21.054a5.031,5.031,0,0,0-2.238.489l.358,1.087a4.127,4.127,0,0,1,1.685-.4c.936,0,1.448.463,1.448,1.278v.144a4.966,4.966,0,0,0-1.627-.246c-1.372,0-2.389.617-2.389,1.9v.022a1.888,1.888,0,0,0,2.1,1.819,2.386,2.386,0,0,0,1.918-.847v.723l1.333.006V23.541A2.272,2.272,0,0,0,129.362,21.054Zm1.285,3.852c0,.736-.668,1.237-1.56,1.237-.637,0-1.139-.31-1.139-.869v-.023c0-.613.5-.959,1.35-.959a3.854,3.854,0,0,1,1.349.234Z"/>
    <polygon points="98.115 22.921 95.739 19.232 94.278 19.232 94.278 27.055 95.627 27.055 95.627 21.479 98.07 25.136 98.118 25.136 100.579 21.437 100.579 27.035 101.951 27.035 101.951 19.232 100.49 19.232 98.115 22.921"/>
    <polygon points="133.524 27.023 134.876 27.035 134.876 18.896 133.524 18.896 133.524 27.023"/>
    <rect x="143.658" y="0.475" width="0.959" height="10.946"/>
    <polygon points="97.245 1.402 101.449 11.425 101.906 11.425 106.117 1.402 106.117 11.421 107.079 11.421 107.079 0.475 105.5 0.475 101.698 9.829 97.862 0.475 96.286 0.475 96.286 11.421 97.245 11.421 97.245 1.402"/>
    <polygon points="49.096 3.17 53.383 11.421 55.966 11.421 55.966 0.478 54.144 0.478 54.14 8.918 49.796 0.478 47.312 0.478 47.312 11.421 49.096 11.421 49.096 3.17"/>
    <polygon points="67.321 3.084 71.605 11.421 74.189 11.421 74.189 2.131 77.504 2.131 77.504 11.421 79.4 11.421 79.4 2.131 82.628 2.131 82.628 0.478 72.363 0.478 72.363 9.008 68.018 0.475 65.528 0.475 65.528 9.823 59.796 9.823 59.796 6.735 63.114 6.735 63.114 5.136 59.796 5.136 59.796 2.042 63.898 2.042 63.898 0.478 57.926 0.478 57.926 11.421 67.321 11.421 67.321 3.084"/>
    <rect x="129.518" y="0.475" width="0.959" height="10.946"/>
    <polygon points="27.097 2.09 29.492 11.421 31.385 11.421 33.773 2.106 33.773 11.421 35.611 11.421 35.611 0.478 32.382 0.478 30.441 8.4 28.546 0.478 25.243 0.478 25.243 11.421 27.097 11.421 27.097 2.09"/>
    <path d="M39.431,8.263h4.016L44.5,11.421h1.975L42.689.478H40.352L36.567,11.421h1.851Zm1.941-6.055h.045l1.518,4.527H39.92Z"/>
    <polygon points="155.986 11.421 155.986 0.475 155.027 0.475 155.027 10.194 148.383 0.475 147.105 0.475 147.105 11.421 148.064 11.421 148.064 1.597 154.707 11.421 155.986 11.421"/>
    <polygon points="159.432 6.124 164.819 6.124 164.819 5.296 159.432 5.296 159.432 1.3 165.187 1.3 165.187 0.475 158.492 0.475 158.492 11.421 165.398 11.421 165.398 10.593 159.432 10.593 159.432 6.124"/>
    <path d="M141.5,10.45a4.721,4.721,0,0,0,.617-.736l-.729-.47a3.543,3.543,0,0,1-1.435,1.231,4.491,4.491,0,0,1-1.861.4,4.688,4.688,0,0,1-1.963-.4,4.515,4.515,0,0,1-1.48-1.08,4.884,4.884,0,0,1-.937-1.573,5.5,5.5,0,0,1-.319-1.88,5.584,5.584,0,0,1,.319-1.877,4.68,4.68,0,0,1,.931-1.573,4.426,4.426,0,0,1,1.474-1.074,4.74,4.74,0,0,1,1.978-.4,3.937,3.937,0,0,1,1.02.131,4.46,4.46,0,0,1,.876.32,3.409,3.409,0,0,1,.7.486,3.214,3.214,0,0,1,.422.473l.8-.585a3.109,3.109,0,0,0-.637-.623h.01a4.525,4.525,0,0,0-.924-.547,5.636,5.636,0,0,0-1.09-.352,5.345,5.345,0,0,0-1.183-.127,5.873,5.873,0,0,0-2.267.434,5.594,5.594,0,0,0-1.809,1.2A5.507,5.507,0,0,0,132.8,3.64a6.007,6.007,0,0,0-.432,2.305,6.135,6.135,0,0,0,.425,2.308,5.356,5.356,0,0,0,3,3.015,6.014,6.014,0,0,0,2.292.432,5.437,5.437,0,0,0,1.368-.163,5.024,5.024,0,0,0,1.135-.448A4.361,4.361,0,0,0,141.5,10.45Z"/>
    <polygon points="85.426 6.735 88.747 6.735 88.747 5.136 85.426 5.136 85.426 2.042 89.534 2.042 89.534 0.478 83.556 0.478 83.556 11.421 89.918 11.421 89.918 9.823 85.426 9.823 85.426 6.735"/>
    <path d="M22.491,5.913l.012,0a3.036,3.036,0,0,0,1.039-2.328,2.992,2.992,0,0,0-1.016-2.311A4.55,4.55,0,0,0,19.361.478H16.183V9.823H10.409V6.735h3.322v-1.6H10.409V2.042h4.124V.475H8.555V11.421h9.527V6.757h.924c.869,1.365,2.711,4.655,2.711,4.655h2.254l-2.938-4.8A3.181,3.181,0,0,0,22.491,5.913Zm-4.412-.748V2.08h1.6c1.426,0,2.008.563,2.008,1.522,0,1.051-.572,1.563-2.008,1.563Z"/>
    <path d="M123.9,11.063a5.659,5.659,0,0,0,1.854-1.029A5.155,5.155,0,0,0,127.1,8.34a5.313,5.313,0,0,0,.509-2.395A5.3,5.3,0,0,0,127.1,3.56h-.009a5.178,5.178,0,0,0-1.324-1.717A5.7,5.7,0,0,0,123.914.814a6.621,6.621,0,0,0-2.056-.339h-3.6V10.6h-7.721V6.124h5.387V5.3h-5.387v-4h5.754V.475h-6.713V11.409h12.267A6.531,6.531,0,0,0,123.9,11.063Zm-4.715-.47V1.3h2.337a5.758,5.758,0,0,1,2.237.4,4.694,4.694,0,0,1,1.577,1.049,4.3,4.3,0,0,1,.939,1.487,4.874,4.874,0,0,1,.32,1.71h-.009a4.922,4.922,0,0,1-.311,1.714,4.324,4.324,0,0,1-.939,1.483,4.7,4.7,0,0,1-1.577,1.052,5.8,5.8,0,0,1-2.237.4Z"/>
    <path d="M3.178.478H.006V11.421H1.9V6.92H3.178a4.513,4.513,0,0,0,3.155-.85c.038-.036.075-.072.11-.11A3.3,3.3,0,0,0,6.349,1.3,4.571,4.571,0,0,0,3.178.478ZM3.5,5.318H1.9V2.077H3.5c1.426,0,2.008.594,2.008,1.6S4.856,5.318,3.5,5.318Z"/>
    <path d="M168.361,9.673h.448l.671,1.112h.438l-.732-1.128a.665.665,0,0,0,.666-.664v-.04c0-.5-.3-.729-.905-.729h-.975v2.558h.39Zm0-1.129h.528c.268,0,.556.061.556.374,0,.393-.291.419-.62.419l-.464.016Z"/>
    <path d="M168.812,11.725a2.238,2.238,0,1,0-1.582-.655A2.229,2.229,0,0,0,168.812,11.725ZM167.527,8.2a1.815,1.815,0,1,1-.533,1.285A1.813,1.813,0,0,1,167.527,8.2Z"/>
  </g>
</svg>
