<?xml version="1.0" encoding="UTF-8"?>
<svg width="48px" height="48px" viewBox="0 0 48 48" version="1.1" xmlns="http://www.w3.org/2000/svg" xmlns:xlink="http://www.w3.org/1999/xlink">
    <title>CNCR_radiation</title>
    <g id="CNCR_radiation" stroke="none" stroke-width="1" fill="none" fill-rule="evenodd">
        <rect id="Rectangle" x="0" y="0" width="48" height="48"></rect>
        <g id="targeted_radiation-2">
            <rect id="Rectangle" x="0" y="0" width="48" height="48"></rect>
            <path d="M24,5 C13.5065898,5 5,13.5065898 5,24 C5,34.4934102 13.5065898,43 24,43 C34.4934102,43 43,34.4934102 43,24 C43,18.9608867 40.99822,14.1281623 37.4350288,10.5649712 C33.8718377,7.00177997 29.0391133,5 24,5 Z M24,41.5 C14.3350169,41.5 6.5,33.6649831 6.5,24 C6.5,14.3350169 14.3350169,6.5 24,6.5 C33.6649831,6.5 41.5,14.3350169 41.5,24 C41.4889784,33.6604141 33.6604141,41.4889784 24,41.5 L24,41.5 Z" id="Shape" fill="#003B71" fill-rule="nonzero"></path>
            <path d="M38.447,23.25 L36.4,23.25 C36.0154643,16.9817222 31.0182117,11.9836117 24.75,11.598 L24.75,9.554 C24.75,9.13978646 24.4142135,8.80400004 24,8.80400004 C23.5857865,8.80400004 23.25,9.13978646 23.25,9.554 L23.25,11.598 C16.9817883,11.9836117 11.9845357,16.9817222 11.6,23.25 L9.554,23.25 C9.13978644,23.25 8.804,23.5857864 8.804,24 C8.804,24.4142136 9.13978644,24.75 9.554,24.75 L11.6,24.75 C11.9845357,31.0182778 16.9817883,36.0163883 23.25,36.402 L23.25,38.446 C23.25,38.8602136 23.5857864,39.196 24,39.196 C24.4142136,39.196 24.75,38.8602136 24.75,38.446 L24.75,36.402 C31.0182117,36.0163883 36.0154643,31.0182778 36.4,24.75 L38.445,24.75 C38.8592136,24.75 39.195,24.4142136 39.195,24 C39.195,23.5857864 38.8592136,23.25 38.445,23.25 L38.447,23.25 Z M32.934,24.75 L34.9,24.75 C34.5271848,30.1941416 30.194068,34.5281122 24.75,34.902 L24.75,32.934 C24.75,32.5197864 24.4142136,32.184 24,32.184 C23.5857864,32.184 23.25,32.5197864 23.25,32.934 L23.25,34.902 C17.805932,34.5281122 13.4728152,30.1941416 13.1,24.75 L15.068,24.75 C15.4822136,24.75 15.818,24.4142136 15.818,24 C15.818,23.5857864 15.4822136,23.25 15.068,23.25 L13.1,23.25 C13.4728152,17.8058584 17.805932,13.4718878 23.25,13.098 L23.25,15.064 C23.25,15.3319492 23.3929492,15.5795445 23.625,15.7135191 C23.8570508,15.8474937 24.1429492,15.8474937 24.375,15.7135191 C24.6070508,15.5795445 24.75,15.3319492 24.75,15.064 L24.75,13.098 C30.194068,13.4718878 34.5271848,17.8058584 34.9,23.25 L32.934,23.25 C32.5197864,23.25 32.184,23.5857864 32.184,24 C32.184,24.4142136 32.5197864,24.75 32.934,24.75 L32.934,24.75 Z" id="Shape" fill="#003B71" fill-rule="nonzero"></path>
            <path d="M24,18.5 C20.9624339,18.5 18.5,20.9624339 18.5,24 C18.5,27.0375661 20.9624339,29.5 24,29.5 C27.0375661,29.5 29.5,27.0375661 29.5,24 C29.4966932,20.9638047 27.0361953,18.5033068 24,18.5 L24,18.5 Z M24,28 C21.790861,28 20,26.209139 20,24 C20,21.790861 21.790861,20 24,20 C26.209139,20 28,21.790861 28,24 C28,26.209139 26.209139,28 24,28 Z" id="Shape" fill="#003B71" fill-rule="nonzero"></path>
            <circle id="Oval" fill="#91CCEF" fill-rule="nonzero" cx="24" cy="24" r="4"></circle>
        </g>
    </g>
</svg>