<svg width="24" height="24" viewBox="0 0 24 24" xmlns="http://www.w3.org/2000/svg">
  <path clip-rule="evenodd" d="M2 12C2 6.49 6.49 2 12 2C17.51 2 22 6.49 22 12C22 17.51 17.51 22 12 22C6.49 22 2 17.51 2 12ZM14.75 14.02C16.47 14.2 17.85 15.38 17.98 17.3C19.23 15.89 20 14.03 20 12C20 7.59 16.41 4 12 4C7.59 4 4 7.59 4 12C4 14.03 4.77 15.89 6.02 17.3C6.15 15.38 7.53 14.2 9.25 14.02C9.36 14.01 9.48 14 9.59 14H14.41C14.52 14 14.64 14.01 14.75 14.02ZM15 10C15 11.6569 13.6569 13 12 13C10.3431 13 9 11.6569 9 10C9 8.34315 10.3431 7 12 7C13.6569 7 15 8.34315 15 10Z" fill="#003B71"/>
</svg>
