<?xml version="1.0" encoding="UTF-8"?>
<svg width="48px" height="48px" viewBox="0 0 48 48" version="1.1" xmlns="http://www.w3.org/2000/svg" xmlns:xlink="http://www.w3.org/1999/xlink">
    <title>CNCR_Specialized_IMG</title>
    <g id="CNCR_Specialized" stroke="none" stroke-width="1" fill="none" fill-rule="evenodd">
        <rect id="Rectangle" x="0" y="0" width="48" height="48"></rect>
        <path d="M18.75,5.25 L29.25,5.25 C31.3187875,5.25549482 32.9945052,6.93121249 33,9 L33,19.5 C32.9975406,20.6786983 32.3050771,21.7467352 31.23,22.23 C30.3328219,25.4826227 27.3740899,27.7357332 24,27.7357332 C20.6259101,27.7357332 17.6671781,25.4826227 16.77,22.23 C15.6949229,21.7467352 15.0024594,20.6786983 15,19.5 L15,9 C15.0054948,6.93121249 16.6812125,5.25549482 18.75,5.25 Z M16.81,20.4 C17.0037034,20.6607115 17.2777905,20.850464 17.59,20.94 L17.86,20.77 L16.93,18.48 C16.7954658,18.6136984 16.6899364,18.7736945 16.62,18.95 C16.5403093,19.1223683 16.4993491,19.3101026 16.4999924,19.5 C16.5006529,19.8260791 16.6097064,20.142686 16.81,20.4 Z M20.62,25.2 C21.6126638,25.8876523 22.7924281,26.2541472 24,26.2500348 C26.4762628,26.2410948 28.6926828,24.7118445 29.58,22.4 C29.5306141,22.330269 29.4771894,22.2634882 29.42,22.2 C28.1399749,20.495917 26.1312768,19.495274 24,19.4999833 C22.9584058,19.5002565 21.9312163,19.743358 21,20.21 C20.0586427,20.6817363 19.2402959,21.3665453 18.61,22.21 C18.56,22.28 18.43,22.42 18.43,22.42 C18.8638917,23.5457759 19.6270983,24.5145953 20.62,25.2 L20.62,25.2 Z M24,18 C25.8049271,17.9919146 27.5622177,18.5788496 29,19.67 L30,17.25 L28.8,14.25 L19.26,14.25 L18.06,17.25 L19.06,19.68 C20.4801666,18.597709 22.2144568,18.0079098 24,18 L24,18 Z M30.15,20.76 L30.41,20.94 C30.7222095,20.850464 30.9962966,20.6607115 31.19,20.4 C31.3902936,20.142686 31.4993471,19.8260791 31.5,19.5 C31.4919291,19.1034983 31.3470886,18.7219672 31.09,18.42 L30.15,20.76 Z M31.49,17.33 L31.49,17.33 L31.49,9 C31.4897507,8.70501055 31.4320075,8.41289772 31.32,8.14 C31.0888418,7.58922495 30.650775,7.1511582 30.1,6.92 C29.8271023,6.80799254 29.5349894,6.7502493 29.24,6.75 L18.75,6.75 C18.4550106,6.7502493 18.1628977,6.80799254 17.89,6.92 C17.339225,7.1511582 16.9011582,7.58922495 16.67,8.14 C16.5579925,8.41289772 16.5002493,8.70501055 16.4999937,9 L16.4999937,17.21 C16.4995809,17.1262371 16.5202124,17.0437112 16.56,16.97 L18.06,13.22 C18.1116903,13.080915 18.2062396,12.9618529 18.33,12.88 C18.4530217,12.7939364 18.5998702,12.7484833 18.75,12.75 L29.25,12.75 C29.4001298,12.7484833 29.5469783,12.7939364 29.67,12.88 C29.7937604,12.9618529 29.8883097,13.080915 29.94,13.22 L31.44,17 C31.4783118,17.1056147 31.495306,17.2177766 31.49,17.33 L31.49,17.33 Z M29.25,27.75 L32.25,27.75 C37.6324915,27.755512 41.994488,32.1175085 42,37.5 L42,39 C41.9945052,41.0687875 40.3187875,42.7445052 38.25,42.75 L9.75,42.75 C7.68121249,42.7445052 6.00549482,41.0687875 6,39 L6,37.5 C6.00551203,32.1175085 10.3675085,27.755512 15.75,27.75 L18.75,27.75 C18.8755426,27.7502038 18.9991313,27.7811009 19.11,27.84 C19.2197165,27.8946027 19.3129105,27.9774419 19.38,28.08 C19.9460365,28.7411569 20.6581442,29.2615433 21.46,29.6 C22.2747049,29.8890261 23.1358978,30.0246471 24,30 C24.8679488,30.0208387 25.7323283,29.88186 26.55,29.59 C27.3548164,29.2564092 28.0705202,28.7393217 28.64,28.08 C28.7035947,27.978147 28.7933929,27.8952562 28.9,27.84 C29.0072796,27.7811398 29.1276342,27.7501915 29.25,27.75 Z M40.33,39.86 C40.4420075,39.5871023 40.5,39.2949894 40.5,39 L40.5,37.5 C40.4944899,32.9459351 36.8040649,29.2555101 32.25,29.25 L29.61,29.25 C28.8910332,30.0089906 28.0182242,30.6056374 27.05,31 C26.0754996,31.3633382 25.0395024,31.5331738 24,31.5 C22.9772277,31.5267019 21.9588273,31.3569685 21,31 C20.0335849,30.6115031 19.1609202,30.0217726 18.44,29.27 L15.75,29.27 C11.2037209,29.275474 7.51650863,32.9537475 7.5,37.5 L7.5,39 C7.5,39.2949894 7.55799254,39.5871023 7.67,39.86 C7.9011582,40.410775 8.33922495,40.8488418 8.89,41.08 C9.16289772,41.1920075 9.45501055,41.2497507 9.75,41.25 L12,41.25 L12,37.5 C12,37.0857864 12.3357864,36.75 12.75,36.75 C13.1642136,36.75 13.5,37.0857864 13.5,37.5 L13.5,41.25 L34.5,41.25 L34.5,37.5 C34.5,37.0857864 34.8357864,36.75 35.25,36.75 C35.6642136,36.75 36,37.0857864 36,37.5 L36,41.25 L38.25,41.25 C38.5449894,41.2497507 38.8371023,41.1920075 39.11,41.08 C39.660775,40.8488418 40.0988418,40.410775 40.33,39.86 L40.33,39.86 Z" id="Shape" fill="#003B71"></path>
        <path d="M18.75,6.75 L29.25,6.75 C29.5449894,6.7502493 29.8371023,6.80799254 30.11,6.92 C30.660775,7.1511582 31.0988418,7.58922495 31.33,8.14 C31.4420075,8.41289772 31.4997507,8.70501055 31.4999937,9 L31.4999937,17.34 L31.4999937,17.34 C31.5257032,17.2213764 31.5257032,17.0986236 31.4999937,16.98 L29.9999937,13.23 C29.9483097,13.090915 29.8537604,12.9718529 29.73,12.89 C29.6069783,12.8039364 29.4601298,12.7584833 29.31,12.76 L18.75,12.76 C18.5998702,12.7584833 18.4530217,12.8039364 18.33,12.89 C18.2062396,12.9718529 18.1116903,13.090915 18.06,13.23 L16.56,17 C16.5202124,17.0737112 16.4995809,17.1562371 16.4999937,17.24 L16.4999937,9 C16.5002493,8.70501055 16.5579925,8.41289772 16.67,8.14 C16.9011582,7.58922495 17.339225,7.1511582 17.89,6.92 C18.1628977,6.80799254 18.4550106,6.7502493 18.75,6.75 Z M20.99,20.24 C23.9135704,18.7773909 27.465028,19.6199668 29.42,22.24 C29.4771894,22.3034882 29.5306141,22.370269 29.58,22.44 C28.6798128,24.736116 26.4662684,26.2475147 24,26.2500348 C22.7924281,26.2541472 21.6126638,25.8876523 20.62,25.2 C19.621809,24.5134381 18.8548396,23.5407816 18.42,22.41 C18.42,22.41 18.55,22.27 18.6,22.2 C19.2358797,21.3605069 20.0572774,20.6794313 21,20.21 L20.99,20.24 Z" id="Shape" fill="#92CCF0"></path>
    </g>
</svg>