<?xml version="1.0" encoding="UTF-8"?>
<svg width="48px" height="48px" viewBox="0 0 48 48" version="1.1" xmlns="http://www.w3.org/2000/svg" xmlns:xlink="http://www.w3.org/1999/xlink">
    <title>CNCR_tobacco</title>
    <g id="CNCR_tobacco" stroke="none" stroke-width="1" fill="none" fill-rule="evenodd">
        <rect id="Rectangle" x="0" y="0" width="48" height="48"></rect>
        <path d="M33.90817,15.9596 C33.5663236,15.4999688 33.0897786,15.1582504 32.54477,14.98194 C31.80747,11.47539 29.33813,11.2803 28.80418,11.2803 L28.64911,11.28614 C27.7413266,11.2799176 26.8755543,11.6680994 26.27631,12.35002 C25.695995,13.0801327 25.4212368,14.0067439 25.50976,14.93518 C25.5448697,16.1935827 26.3270092,17.3098054 27.49782,17.77242 C27.5226499,18.2383545 27.6777437,18.6879688 27.94546,19.07012 C28.5132367,19.8191202 29.4164403,20.2365619 30.35483,20.18368 C30.49234,20.18368 30.60791,20.17637 30.69129,20.16907 L30.70592,20.16907 C30.73518,20.22607 30.77175,20.3057 30.79955,20.36489 C30.8980138,20.5916606 31.0180315,20.8084494 31.15795,21.01227 C31.4673739,21.4720079 31.9833089,21.7499321 32.53745,21.75538 L32.53892,21.75538 C33.3928476,21.7370364 34.0998667,21.0864758 34.18905,20.23702 C34.73612,18.34382 34.644,16.94383 33.90817,15.9596 Z M32.72443,19.90967 C32.72443,19.90967 32.64973,20.51614 32.36904,20.13067 C32.02928,19.66422 31.98585,18.67196 30.62135,18.67196 C30.62135,18.67196 28.32828,18.9951 29.18335,16.65362 C29.18335,16.65362 27.00685,16.56362 27.00685,14.85094 C26.9153013,14.3451426 27.0498789,13.8246244 27.3751107,13.4265836 C27.7003425,13.0285428 28.1835941,12.7929198 28.69749,12.78182 C28.69749,12.78182 30.93231,12.48836 31.22379,16.34518 C31.22378,16.34521 33.94868,15.79519 32.72443,19.90967 L32.72443,19.90967 Z" id="Shape" fill="#003B71" fill-rule="nonzero"></path>
        <path d="M24.30583,4.54869 C13.565547,4.39097007 4.72998698,12.9679042 4.56865923,23.7081336 C4.40733147,34.448363 12.9812972,43.2868037 23.7214718,43.4517393 C34.4616464,43.6166748 43.3029667,35.0456786 43.47151,24.30556 C43.621883,13.5625062 35.048495,4.72466102 24.30583,4.54869 L24.30583,4.54869 Z M23.71766,41.95513 C13.8039906,41.7889665 5.90105703,33.6194994 6.06369727,23.7057716 C6.22633751,13.7920439 14.3929955,5.88620739 24.3067804,6.04532437 C34.2205654,6.20444135 42.1293037,14.3682891 41.97371,24.28213 C41.8016331,34.1988614 33.6347531,42.1049127 23.71766,41.95513 L23.71766,41.95513 Z" id="Shape" fill="#003B71" fill-rule="nonzero"></path>
        <path d="M24.28233,6.04494 C14.3681858,5.89931476 6.21222977,13.8164957 6.06329585,23.7305907 C5.91436193,33.6446858 13.8288205,41.8032836 23.7428653,41.9555262 C33.6569101,42.1077688 41.8181488,34.1960334 41.9737,24.28204 C42.112411,14.3654248 34.1985833,6.20747729 24.28233,6.04494 Z M23.74244,40.38094 C17.2482899,40.2949831 11.4199936,36.3754978 8.89094112,30.3934189 C6.36188865,24.4113399 7.61108981,17.4996904 12.07412,12.78135 L34.85029,36.26005 C31.7940715,38.9757295 27.8303643,40.4462212 23.74244,40.38094 L23.74244,40.38094 Z M35.92597,35.21857 L13.14998,11.73994 C19.6999409,5.91426508 29.6764546,6.28180208 35.7800038,12.5736352 C41.883553,18.8654682 41.947907,28.8485423 35.92598,35.21857 L35.92597,35.21857 Z" id="Shape" fill="#92CCF0" fill-rule="nonzero"></path>
        <path d="M24.25756,7.61912 C20.1696956,7.55385216 16.2060517,9.02433706 13.14989,11.73999 L22.65433,21.53754 L22.65433,21.53754 L31.50504,30.66123 L31.50495,30.66123 L35.92595,35.21859 C40.3889165,30.5002352 41.6380677,23.5886177 39.109006,17.6065788 C36.5799443,11.62454 30.7516767,7.70508443 24.25756,7.61912 Z M31.50504,28.48936 L31.48365,28.48936 L27.13048,24.00194 L31.50504,24.00194 L31.50504,28.48936 Z M35.85419,32.99476 L32.93529,29.98576 L33.73612,29.98576 C34.9727326,29.9818895 35.972833,28.9777181 35.97168,27.7411 L35.97168,24.74972 C35.9725183,23.5133504 34.9724841,22.509572 33.73612,22.50579 L25.67912,22.50579 L15.37265,11.88138 C21.3585527,7.59616828 29.5787806,8.33501086 34.7045976,13.6189554 C39.8304146,18.9029 40.3192382,27.1417765 35.85419,32.99476 L35.85419,32.99476 Z M33.05396,28.48936 L33.05396,24.00194 L33.73576,24.00194 C34.1317571,24.0193178 34.4390909,24.3537369 34.42304,24.74979 L34.42304,27.7414 C34.4390582,28.1374569 34.131756,28.4718819 33.73576,28.48936 L33.05396,28.48936 Z" id="Shape" fill="#003B71" fill-rule="nonzero"></path>
        <path d="M25.70929,26.83719 L22.95888,24.00194 L21.50752,22.50579 L12.07412,12.7814 C6.06739881,19.1538776 6.138935,29.124864 12.236471,35.4105004 C18.334007,41.6961368 28.2982203,42.0704887 34.8502,36.26009 L29.31355,30.55263 L25.70929,26.83719 Z M21.00429,24.13777 L25.22571,28.48936 L21.00429,28.48936 L21.00429,24.13777 Z M23.76594,38.88517 C18.1491049,38.8119673 13.0534432,35.578278 10.5955115,30.5272616 C8.13757977,25.4762453 8.73738908,19.4710189 12.1458,15.00594 L19.42118,22.50577 L12.41781,22.50577 C11.867517,22.5493835 11.3574048,22.8108753 11.0007273,23.2321895 C10.6440498,23.6535038 10.470324,24.1997745 10.51812,24.74972 L10.51812,27.74114 C10.4703172,28.2911686 10.644028,28.8375269 11.0006991,29.2589558 C11.3573702,29.6803847 11.8674964,29.9420221 12.41786,29.9858 L26.67735,29.9858 L32.62662,36.11861 C30.0449919,37.964783 26.9393815,38.9344442 23.76594,38.88517 Z M19.50602,24.00194 L19.50602,28.48934 L12.41763,28.48934 C12.16254,28.48934 11.95581,28.15441 11.95581,27.7414 L11.95581,24.74981 C11.95581,24.3367 12.16254,24.00194 12.41763,24.00194 L19.50602,24.00194 Z" id="Shape" fill="#003B71" fill-rule="nonzero"></path>
    </g>
</svg>